<?xml version="1.0" encoding="UTF-8" standalone="no"?><svg xmlns="http://www.w3.org/2000/svg" xmlns:xlink="http://www.w3.org/1999/xlink" contentScriptType="application/ecmascript" contentStyleType="text/css" height="428px" preserveAspectRatio="none" style="width:431px;height:428px;" version="1.1" viewBox="0 0 431 428" width="431px" zoomAndPan="magnify"><defs><filter height="300%" id="f5kixfpuag03b" width="300%" x="-1" y="-1"><feGaussianBlur result="blurOut" stdDeviation="2.0"/><feColorMatrix in="blurOut" result="blurOut2" type="matrix" values="0 0 0 0 0 0 0 0 0 0 0 0 0 0 0 0 0 0 .4 0"/><feOffset dx="4.0" dy="4.0" in="blurOut2" result="blurOut3"/><feBlend in="SourceGraphic" in2="blurOut3" mode="normal"/></filter></defs><g><!--cluster de.gematik.ti.cardreader.provider.api--><polygon fill="#FFFFFF" filter="url(#f5kixfpuag03b)" points="22,24,290,24,297,47.6094,409,47.6094,409,416,22,416,22,24" style="stroke: #000000; stroke-width: 1.5;"/><line style="stroke: #000000; stroke-width: 1.5;" x1="22" x2="297" y1="47.6094" y2="47.6094"/><text fill="#000000" font-family="sans-serif" font-size="14" font-weight="bold" lengthAdjust="spacingAndGlyphs" textLength="262" x="26" y="40.5332">de.gematik.ti.cardreader.provider.api</text><!--class de.gematik.ti.cardreader.provider.api.AbstractCardReaderController--><rect fill="#FEFECE" filter="url(#f5kixfpuag03b)" height="89.5078" id="de.gematik.ti.cardreader.provider.api.AbstractCardReaderController" style="stroke: #A80036; stroke-width: 1.5;" width="199" x="193.5" y="289.5"/><ellipse cx="208.5" cy="305.5" fill="#A9DCDF" rx="11" ry="11" style="stroke: #A80036; stroke-width: 1.0;"/><path d="M210.25,307 L206.9531,307 L206.5156,308 L206.5156,308 L206.9844,308 L207.5,308.625 L207.5,309 L207.5,309.375 L206.9844,310 L206.5156,310 L204.625,310 L204.0156,310 L203.5,309.375 L203.5,309 L203.5,308.625 L204.0156,308 L204.625,308 L206.9375,302 L206.0625,302 L205.0156,302 L204.5,301.375 L204.5,301 L204.5,300.625 L205.0156,300 L206.0625,300 L209.7344,300 L212.4219,308 L212.9844,308 L212.9844,308 L213.5,308.625 L213.5,309 L213.5,309.375 L212.9844,310 L212.4219,310 L210.5313,310 L210.0156,310 L209.5,309.375 L209.5,309 L209.5,308.625 L210.0156,308 L210.5313,308 L210.5313,308 L210.25,307 Z M209.7031,305 L208.5,301.4219 L207.4688,305 L209.7031,305 Z "/><text fill="#000000" font-family="sans-serif" font-size="12" font-style="italic" lengthAdjust="spacingAndGlyphs" textLength="167" x="222.5" y="310.4102">AbstractCardReaderController</text><line style="stroke: #A80036; stroke-width: 1.5;" x1="194.5" x2="391.5" y1="321.5" y2="321.5"/><line style="stroke: #A80036; stroke-width: 1.5;" x1="194.5" x2="391.5" y1="329.5" y2="329.5"/><ellipse cx="204.5" cy="341.918" fill="#84BE84" rx="3" ry="3" style="stroke: #038048; stroke-width: 1.0;"/><text fill="#000000" font-family="sans-serif" font-size="11" lengthAdjust="spacingAndGlyphs" textLength="143" x="213.5" y="344.9189">createCardEventTransmitter()</text><polygon fill="#FFFF44" points="204.5,350.7539,208.5,354.7539,204.5,358.7539,200.5,354.7539" style="stroke: #B38D22; stroke-width: 1.0;"/><text fill="#000000" font-family="sans-serif" font-size="11" lengthAdjust="spacingAndGlyphs" textLength="156" x="213.5" y="358.7549">informAboutReaderConnection()</text><polygon fill="#FFFF44" points="204.5,364.5898,208.5,368.5898,204.5,372.5898,200.5,368.5898" style="stroke: #B38D22; stroke-width: 1.0;"/><text fill="#000000" font-family="sans-serif" font-size="11" lengthAdjust="spacingAndGlyphs" textLength="170" x="213.5" y="372.5908">informAboutReaderDisconnection()</text><!--class de.gematik.ti.cardreader.provider.api.CardEventTransmitter--><rect fill="#FEFECE" filter="url(#f5kixfpuag03b)" height="131.0156" id="de.gematik.ti.cardreader.provider.api.CardEventTransmitter" style="stroke: #A80036; stroke-width: 1.5;" width="162" x="38" y="60"/><ellipse cx="57.5" cy="76" fill="#ADD1B2" rx="11" ry="11" style="stroke: #A80036; stroke-width: 1.0;"/><path d="M59.5,72.5 Q59.7031,72 59.9375,71.75 Q60.1719,71.5 60.4375,71.5 Q60.9063,71.5 61.2031,71.7813 Q61.5,72.0625 61.5,72.7188 L61.5,74.2813 Q61.5,74.9375 61.2188,75.2188 Q60.9375,75.5 60.5,75.5 Q60.1094,75.5 59.8594,75.3281 Q59.6094,75.1563 59.5,74.7031 Q59.4531,74.3906 59.2813,74.2188 Q58.9688,73.8906 58.4063,73.7031 Q57.8438,73.5 57.2813,73.5 Q56.5781,73.5 55.9844,73.7813 Q55.4063,74.0625 54.9531,74.6875 Q54.5,75.3125 54.5,76.1719 L54.5,77.0938 Q54.5,78.125 55.3438,78.8125 Q56.1875,79.5 57.6875,79.5 Q58.5781,79.5 59.2031,79.2969 Q59.5625,79.1875 59.9688,78.8281 Q60.2344,78.625 60.375,78.5625 Q60.5156,78.5 60.6875,78.5 Q61.0156,78.5 61.25,78.7656 Q61.5,79.0156 61.5,79.375 Q61.5,79.7188 61.1563,80.125 Q60.6563,80.7188 59.8594,81.0469 Q58.8125,81.5 57.5313,81.5 Q56.0313,81.5 54.8281,80.9063 Q53.8594,80.4375 53.1719,79.4219 Q52.5,78.4063 52.5,77.2031 L52.5,76.1094 Q52.5,74.8594 53.0938,73.7656 Q53.7031,72.6719 54.75,72.0938 Q55.8125,71.5 57,71.5 Q57.7188,71.5 58.3438,71.75 Q58.9688,72 59.5,72.5 Z "/><text fill="#000000" font-family="sans-serif" font-size="12" lengthAdjust="spacingAndGlyphs" textLength="120" x="72.5" y="80.9102">CardEventTransmitter</text><line style="stroke: #A80036; stroke-width: 1.5;" x1="39" x2="199" y1="92" y2="92"/><rect fill="none" height="6" style="stroke: #C82930; stroke-width: 1.0;" width="6" x="46" y="101.418"/><text fill="#000000" font-family="sans-serif" font-size="11" lengthAdjust="spacingAndGlyphs" text-decoration="underline" textLength="65" x="58" y="107.4189">LOG : Logger</text><line style="stroke: #A80036; stroke-width: 1.5;" x1="39" x2="199" y1="113.8359" y2="113.8359"/><ellipse cx="49" cy="126.2539" fill="#84BE84" rx="3" ry="3" style="stroke: #038048; stroke-width: 1.0;"/><text fill="#000000" font-family="sans-serif" font-size="11" lengthAdjust="spacingAndGlyphs" textLength="125" x="58" y="129.2549">informAboutCardAbsent()</text><ellipse cx="49" cy="140.0898" fill="#84BE84" rx="3" ry="3" style="stroke: #038048; stroke-width: 1.0;"/><text fill="#000000" font-family="sans-serif" font-size="11" lengthAdjust="spacingAndGlyphs" textLength="127" x="58" y="143.0908">informAboutCardPresent()</text><ellipse cx="49" cy="153.9258" fill="#84BE84" rx="3" ry="3" style="stroke: #038048; stroke-width: 1.0;"/><text fill="#000000" font-family="sans-serif" font-size="11" lengthAdjust="spacingAndGlyphs" textLength="127" x="58" y="156.9268">informAboutCardTimeout()</text><ellipse cx="49" cy="167.7617" fill="#84BE84" rx="3" ry="3" style="stroke: #038048; stroke-width: 1.0;"/><text fill="#000000" font-family="sans-serif" font-size="11" lengthAdjust="spacingAndGlyphs" textLength="136" x="58" y="170.7627">informAboutCardUnknown()</text><polygon fill="#4177AF" points="49,177.5977,45,183.5977,53,183.5977" style="stroke: #1963A0; stroke-width: 1.0;"/><text fill="#000000" font-family="sans-serif" font-size="11" lengthAdjust="spacingAndGlyphs" textLength="112" x="58" y="184.5986">CardEventTransmitter()</text><!--class de.gematik.ti.cardreader.provider.api.ICardReader--><rect fill="#FEFECE" filter="url(#f5kixfpuag03b)" height="131.0156" id="de.gematik.ti.cardreader.provider.api.ICardReader" style="stroke: #A80036; stroke-width: 1.5;" width="111" x="47.5" y="269"/><ellipse cx="65.65" cy="285" fill="#B4A7E5" rx="11" ry="11" style="stroke: #A80036; stroke-width: 1.0;"/><path d="M66.65,282 L66.65,288 L68.65,288 L69.1344,288 L69.65,288.625 L69.65,289 L69.65,289.375 L69.1344,290 L68.65,290 L62.65,290 L62.1656,290 L61.65,289.375 L61.65,289 L61.65,288.625 L62.1656,288 L62.65,288 L64.65,288 L64.65,282 L62.65,282 L62.1656,282 L61.65,281.375 L61.65,281 L61.65,280.625 L62.1656,280 L62.65,280 L68.65,280 L69.1344,280 L69.65,280.625 L69.65,281 L69.65,281.375 L69.1344,282 L68.65,282 L66.65,282 Z "/><text fill="#000000" font-family="sans-serif" font-size="12" font-style="italic" lengthAdjust="spacingAndGlyphs" textLength="72" x="80.35" y="289.9102">ICardReader</text><line style="stroke: #A80036; stroke-width: 1.5;" x1="48.5" x2="157.5" y1="301" y2="301"/><line style="stroke: #A80036; stroke-width: 1.5;" x1="48.5" x2="157.5" y1="309" y2="309"/><ellipse cx="58.5" cy="321.418" fill="#84BE84" rx="3" ry="3" style="stroke: #038048; stroke-width: 1.0;"/><text fill="#000000" font-family="sans-serif" font-size="11" font-style="italic" lengthAdjust="spacingAndGlyphs" textLength="47" x="67.5" y="324.4189">connect()</text><ellipse cx="58.5" cy="335.2539" fill="#84BE84" rx="3" ry="3" style="stroke: #038048; stroke-width: 1.0;"/><text fill="#000000" font-family="sans-serif" font-size="11" lengthAdjust="spacingAndGlyphs" textLength="85" x="67.5" y="338.2549">getDisplayName()</text><ellipse cx="58.5" cy="349.0898" fill="#84BE84" rx="3" ry="3" style="stroke: #038048; stroke-width: 1.0;"/><text fill="#000000" font-family="sans-serif" font-size="11" font-style="italic" lengthAdjust="spacingAndGlyphs" textLength="52" x="67.5" y="352.0908">getName()</text><ellipse cx="58.5" cy="362.9258" fill="#84BE84" rx="3" ry="3" style="stroke: #038048; stroke-width: 1.0;"/><text fill="#000000" font-family="sans-serif" font-size="11" font-style="italic" lengthAdjust="spacingAndGlyphs" textLength="50" x="67.5" y="365.9268">initialize()</text><ellipse cx="58.5" cy="376.7617" fill="#84BE84" rx="3" ry="3" style="stroke: #038048; stroke-width: 1.0;"/><text fill="#000000" font-family="sans-serif" font-size="11" font-style="italic" lengthAdjust="spacingAndGlyphs" textLength="79" x="67.5" y="379.7627">isCardPresent()</text><ellipse cx="58.5" cy="390.5977" fill="#84BE84" rx="3" ry="3" style="stroke: #038048; stroke-width: 1.0;"/><text fill="#000000" font-family="sans-serif" font-size="11" font-style="italic" lengthAdjust="spacingAndGlyphs" textLength="65" x="67.5" y="393.5986">isInitialized()</text><!--class de.gematik.ti.cardreader.provider.api.ICardReaderController--><rect fill="#FEFECE" filter="url(#f5kixfpuag03b)" height="61.8359" id="de.gematik.ti.cardreader.provider.api.ICardReaderController" style="stroke: #A80036; stroke-width: 1.5;" width="158" x="235" y="94.5"/><ellipse cx="250" cy="110.5" fill="#B4A7E5" rx="11" ry="11" style="stroke: #A80036; stroke-width: 1.0;"/><path d="M251,107.5 L251,113.5 L253,113.5 L253.4844,113.5 L254,114.125 L254,114.5 L254,114.875 L253.4844,115.5 L253,115.5 L247,115.5 L246.5156,115.5 L246,114.875 L246,114.5 L246,114.125 L246.5156,113.5 L247,113.5 L249,113.5 L249,107.5 L247,107.5 L246.5156,107.5 L246,106.875 L246,106.5 L246,106.125 L246.5156,105.5 L247,105.5 L253,105.5 L253.4844,105.5 L254,106.125 L254,106.5 L254,106.875 L253.4844,107.5 L253,107.5 L251,107.5 Z "/><text fill="#000000" font-family="sans-serif" font-size="12" font-style="italic" lengthAdjust="spacingAndGlyphs" textLength="126" x="264" y="115.4102">ICardReaderController</text><line style="stroke: #A80036; stroke-width: 1.5;" x1="236" x2="392" y1="126.5" y2="126.5"/><line style="stroke: #A80036; stroke-width: 1.5;" x1="236" x2="392" y1="134.5" y2="134.5"/><ellipse cx="246" cy="146.918" fill="#84BE84" rx="3" ry="3" style="stroke: #038048; stroke-width: 1.0;"/><text fill="#000000" font-family="sans-serif" font-size="11" font-style="italic" lengthAdjust="spacingAndGlyphs" textLength="89" x="255" y="149.9189">getCardReaders()</text><!--link de.gematik.ti.cardreader.provider.api.ICardReaderController to de.gematik.ti.cardreader.provider.api.AbstractCardReaderController--><path d="M308.888,176.892 C305.404,211.235 300.834,256.279 297.49,289.239 " fill="none" id="de.gematik.ti.cardreader.provider.api.ICardReaderController-de.gematik.ti.cardreader.provider.api.AbstractCardReaderController" style="stroke: #A80036; stroke-width: 1.0; stroke-dasharray: 7.0,7.0;"/><polygon fill="none" points="301.963,175.791,310.946,156.6,315.892,177.204,301.963,175.791" style="stroke: #A80036; stroke-width: 1.0;"/><!--link de.gematik.ti.cardreader.provider.api.CardEventTransmitter to de.gematik.ti.cardreader.provider.api.ICardReader--><path d="M112.994,204.201 C111.344,225.553 109.572,248.469 107.986,268.99 " fill="none" id="de.gematik.ti.cardreader.provider.api.CardEventTransmitter-de.gematik.ti.cardreader.provider.api.ICardReader" style="stroke: #A80036; stroke-width: 1.0;"/><polygon fill="#FFFFFF" points="114.003,191.145,109.5521,196.8186,113.0773,203.1092,117.5282,197.4357,114.003,191.145" style="stroke: #A80036; stroke-width: 1.0;"/><text fill="#000000" font-family="sans-serif" font-size="13" lengthAdjust="spacingAndGlyphs" textLength="66" x="113" y="235.4951">cardReader</text><!--
@startuml



  namespace de.gematik.ti.cardreader.provider.api {
    abstract class de.gematik.ti.cardreader.provider.api.AbstractCardReaderController {
        + createCardEventTransmitter()
        # informAboutReaderConnection()
        # informAboutReaderDisconnection()
    }
  }


  namespace de.gematik.ti.cardreader.provider.api {
    class de.gematik.ti.cardreader.provider.api.CardEventTransmitter {
        {static} - LOG : Logger
        + informAboutCardAbsent()
        + informAboutCardPresent()
        + informAboutCardTimeout()
        + informAboutCardUnknown()
        ~ CardEventTransmitter()
    }
  }


  namespace de.gematik.ti.cardreader.provider.api {
    interface de.gematik.ti.cardreader.provider.api.ICardReader {
        {abstract} + connect()
        + getDisplayName()
        {abstract} + getName()
        {abstract} + initialize()
        {abstract} + isCardPresent()
        {abstract} + isInitialized()
    }
  }


  namespace de.gematik.ti.cardreader.provider.api {
    interface de.gematik.ti.cardreader.provider.api.ICardReaderController {
        {abstract} + getCardReaders()
    }
  }


  de.gematik.ti.cardreader.provider.api.AbstractCardReaderController .up.|> de.gematik.ti.cardreader.provider.api.ICardReaderController
  de.gematik.ti.cardreader.provider.api.CardEventTransmitter o- - de.gematik.ti.cardreader.provider.api.ICardReader : cardReader









@enduml

PlantUML version 1.2019.06(Fri May 24 19:10:25 CEST 2019)
(APACHE source distribution)
Java Runtime: OpenJDK Runtime Environment
JVM: OpenJDK 64-Bit Server VM
Java Version: 11.0.4+10-b304.69
Operating System: Windows 7
OS Version: 6.1
Default Encoding: Cp1252
Language: de
Country: DE
--></g></svg>