<?xml version="1.0" encoding="UTF-8" standalone="no"?><svg xmlns="http://www.w3.org/2000/svg" xmlns:xlink="http://www.w3.org/1999/xlink" contentScriptType="application/ecmascript" contentStyleType="text/css" height="350px" preserveAspectRatio="none" style="width:813px;height:350px;" version="1.1" viewBox="0 0 813 350" width="813px" zoomAndPan="magnify"><defs><filter height="300%" id="f1ldqfzzhjauqz" width="300%" x="-1" y="-1"><feGaussianBlur result="blurOut" stdDeviation="2.0"/><feColorMatrix in="blurOut" result="blurOut2" type="matrix" values="0 0 0 0 0 0 0 0 0 0 0 0 0 0 0 0 0 0 .4 0"/><feOffset dx="4.0" dy="4.0" in="blurOut2" result="blurOut3"/><feBlend in="SourceGraphic" in2="blurOut3" mode="normal"/></filter></defs><g><!--cluster de.gematik.ti.cardreader.provider.api--><polygon fill="#FFFFFF" filter="url(#f1ldqfzzhjauqz)" points="22,24,290,24,297,47.6094,791,47.6094,791,338,22,338,22,24" style="stroke: #000000; stroke-width: 1.5;"/><line style="stroke: #000000; stroke-width: 1.5;" x1="22" x2="297" y1="47.6094" y2="47.6094"/><text fill="#000000" font-family="sans-serif" font-size="14" font-weight="bold" lengthAdjust="spacingAndGlyphs" textLength="262" x="26" y="40.5332">de.gematik.ti.cardreader.provider.api</text><!--cluster de.gematik.ti.cardreader.provider.api.events--><polygon fill="#FFFFFF" filter="url(#f1ldqfzzhjauqz)" points="46,68,101,68,108,91.6094,767,91.6094,767,314,46,314,46,68" style="stroke: #000000; stroke-width: 1.5;"/><line style="stroke: #000000; stroke-width: 1.5;" x1="46" x2="108" y1="91.6094" y2="91.6094"/><text fill="#000000" font-family="sans-serif" font-size="14" font-weight="bold" lengthAdjust="spacingAndGlyphs" textLength="49" x="50" y="84.5332">events</text><!--cluster de.gematik.ti.cardreader.provider.api.events.card--><polygon fill="#FFFFFF" filter="url(#f1ldqfzzhjauqz)" points="70,176,107,176,114,199.6094,743,199.6094,743,290,70,290,70,176" style="stroke: #000000; stroke-width: 1.5;"/><line style="stroke: #000000; stroke-width: 1.5;" x1="70" x2="114" y1="199.6094" y2="199.6094"/><text fill="#000000" font-family="sans-serif" font-size="14" font-weight="bold" lengthAdjust="spacingAndGlyphs" textLength="31" x="74" y="192.5332">card</text><!--class de.gematik.ti.cardreader.provider.api.events.AbstractCardReaderEvent--><rect fill="#FEFECE" filter="url(#f1ldqfzzhjauqz)" height="48" id="de.gematik.ti.cardreader.provider.api.events.AbstractCardReaderEvent" style="stroke: #A80036; stroke-width: 1.5;" width="174" x="327" y="104"/><ellipse cx="342" cy="120" fill="#ADD1B2" rx="11" ry="11" style="stroke: #A80036; stroke-width: 1.0;"/><path d="M344,116.5 Q344.2031,116 344.4375,115.75 Q344.6719,115.5 344.9375,115.5 Q345.4063,115.5 345.7031,115.7813 Q346,116.0625 346,116.7188 L346,118.2813 Q346,118.9375 345.7188,119.2188 Q345.4375,119.5 345,119.5 Q344.6094,119.5 344.3594,119.3281 Q344.1094,119.1563 344,118.7031 Q343.9531,118.3906 343.7813,118.2188 Q343.4688,117.8906 342.9063,117.7031 Q342.3438,117.5 341.7813,117.5 Q341.0781,117.5 340.4844,117.7813 Q339.9063,118.0625 339.4531,118.6875 Q339,119.3125 339,120.1719 L339,121.0938 Q339,122.125 339.8438,122.8125 Q340.6875,123.5 342.1875,123.5 Q343.0781,123.5 343.7031,123.2969 Q344.0625,123.1875 344.4688,122.8281 Q344.7344,122.625 344.875,122.5625 Q345.0156,122.5 345.1875,122.5 Q345.5156,122.5 345.75,122.7656 Q346,123.0156 346,123.375 Q346,123.7188 345.6563,124.125 Q345.1563,124.7188 344.3594,125.0469 Q343.3125,125.5 342.0313,125.5 Q340.5313,125.5 339.3281,124.9063 Q338.3594,124.4375 337.6719,123.4219 Q337,122.4063 337,121.2031 L337,120.1094 Q337,118.8594 337.5938,117.7656 Q338.2031,116.6719 339.25,116.0938 Q340.3125,115.5 341.5,115.5 Q342.2188,115.5 342.8438,115.75 Q343.4688,116 344,116.5 Z "/><text fill="#000000" font-family="sans-serif" font-size="12" lengthAdjust="spacingAndGlyphs" textLength="142" x="356" y="124.9102">AbstractCardReaderEvent</text><line style="stroke: #A80036; stroke-width: 1.5;" x1="328" x2="500" y1="136" y2="136"/><line style="stroke: #A80036; stroke-width: 1.5;" x1="328" x2="500" y1="144" y2="144"/><!--class de.gematik.ti.cardreader.provider.api.events.card.CardAbsentEvent--><rect fill="#FEFECE" filter="url(#f1ldqfzzhjauqz)" height="61.8359" id="de.gematik.ti.cardreader.provider.api.events.card.CardAbsentEvent" style="stroke: #A80036; stroke-width: 1.5;" width="127" x="599.5" y="212"/><ellipse cx="614.5" cy="228" fill="#ADD1B2" rx="11" ry="11" style="stroke: #A80036; stroke-width: 1.0;"/><path d="M616.5,224.5 Q616.7031,224 616.9375,223.75 Q617.1719,223.5 617.4375,223.5 Q617.9063,223.5 618.2031,223.7813 Q618.5,224.0625 618.5,224.7188 L618.5,226.2813 Q618.5,226.9375 618.2188,227.2188 Q617.9375,227.5 617.5,227.5 Q617.1094,227.5 616.8594,227.3281 Q616.6094,227.1563 616.5,226.7031 Q616.4531,226.3906 616.2813,226.2188 Q615.9688,225.8906 615.4063,225.7031 Q614.8438,225.5 614.2813,225.5 Q613.5781,225.5 612.9844,225.7813 Q612.4063,226.0625 611.9531,226.6875 Q611.5,227.3125 611.5,228.1719 L611.5,229.0938 Q611.5,230.125 612.3438,230.8125 Q613.1875,231.5 614.6875,231.5 Q615.5781,231.5 616.2031,231.2969 Q616.5625,231.1875 616.9688,230.8281 Q617.2344,230.625 617.375,230.5625 Q617.5156,230.5 617.6875,230.5 Q618.0156,230.5 618.25,230.7656 Q618.5,231.0156 618.5,231.375 Q618.5,231.7188 618.1563,232.125 Q617.6563,232.7188 616.8594,233.0469 Q615.8125,233.5 614.5313,233.5 Q613.0313,233.5 611.8281,232.9063 Q610.8594,232.4375 610.1719,231.4219 Q609.5,230.4063 609.5,229.2031 L609.5,228.1094 Q609.5,226.8594 610.0938,225.7656 Q610.7031,224.6719 611.75,224.0938 Q612.8125,223.5 614,223.5 Q614.7188,223.5 615.3438,223.75 Q615.9688,224 616.5,224.5 Z "/><text fill="#000000" font-family="sans-serif" font-size="12" lengthAdjust="spacingAndGlyphs" textLength="95" x="628.5" y="232.9102">CardAbsentEvent</text><line style="stroke: #A80036; stroke-width: 1.5;" x1="600.5" x2="725.5" y1="244" y2="244"/><line style="stroke: #A80036; stroke-width: 1.5;" x1="600.5" x2="725.5" y1="252" y2="252"/><ellipse cx="610.5" cy="264.418" fill="#84BE84" rx="3" ry="3" style="stroke: #038048; stroke-width: 1.0;"/><text fill="#000000" font-family="sans-serif" font-size="11" lengthAdjust="spacingAndGlyphs" textLength="93" x="619.5" y="267.4189">CardAbsentEvent()</text><!--class de.gematik.ti.cardreader.provider.api.events.card.CardPresentEvent--><rect fill="#FEFECE" filter="url(#f1ldqfzzhjauqz)" height="61.8359" id="de.gematik.ti.cardreader.provider.api.events.card.CardPresentEvent" style="stroke: #A80036; stroke-width: 1.5;" width="132" x="432" y="212"/><ellipse cx="447" cy="228" fill="#ADD1B2" rx="11" ry="11" style="stroke: #A80036; stroke-width: 1.0;"/><path d="M449,224.5 Q449.2031,224 449.4375,223.75 Q449.6719,223.5 449.9375,223.5 Q450.4063,223.5 450.7031,223.7813 Q451,224.0625 451,224.7188 L451,226.2813 Q451,226.9375 450.7188,227.2188 Q450.4375,227.5 450,227.5 Q449.6094,227.5 449.3594,227.3281 Q449.1094,227.1563 449,226.7031 Q448.9531,226.3906 448.7813,226.2188 Q448.4688,225.8906 447.9063,225.7031 Q447.3438,225.5 446.7813,225.5 Q446.0781,225.5 445.4844,225.7813 Q444.9063,226.0625 444.4531,226.6875 Q444,227.3125 444,228.1719 L444,229.0938 Q444,230.125 444.8438,230.8125 Q445.6875,231.5 447.1875,231.5 Q448.0781,231.5 448.7031,231.2969 Q449.0625,231.1875 449.4688,230.8281 Q449.7344,230.625 449.875,230.5625 Q450.0156,230.5 450.1875,230.5 Q450.5156,230.5 450.75,230.7656 Q451,231.0156 451,231.375 Q451,231.7188 450.6563,232.125 Q450.1563,232.7188 449.3594,233.0469 Q448.3125,233.5 447.0313,233.5 Q445.5313,233.5 444.3281,232.9063 Q443.3594,232.4375 442.6719,231.4219 Q442,230.4063 442,229.2031 L442,228.1094 Q442,226.8594 442.5938,225.7656 Q443.2031,224.6719 444.25,224.0938 Q445.3125,223.5 446.5,223.5 Q447.2188,223.5 447.8438,223.75 Q448.4688,224 449,224.5 Z "/><text fill="#000000" font-family="sans-serif" font-size="12" lengthAdjust="spacingAndGlyphs" textLength="100" x="461" y="232.9102">CardPresentEvent</text><line style="stroke: #A80036; stroke-width: 1.5;" x1="433" x2="563" y1="244" y2="244"/><line style="stroke: #A80036; stroke-width: 1.5;" x1="433" x2="563" y1="252" y2="252"/><ellipse cx="443" cy="264.418" fill="#84BE84" rx="3" ry="3" style="stroke: #038048; stroke-width: 1.0;"/><text fill="#000000" font-family="sans-serif" font-size="11" lengthAdjust="spacingAndGlyphs" textLength="95" x="452" y="267.4189">CardPresentEvent()</text><!--class de.gematik.ti.cardreader.provider.api.events.card.CardTimeoutEvent--><rect fill="#FEFECE" filter="url(#f1ldqfzzhjauqz)" height="61.8359" id="de.gematik.ti.cardreader.provider.api.events.card.CardTimeoutEvent" style="stroke: #A80036; stroke-width: 1.5;" width="134" x="263" y="212"/><ellipse cx="278" cy="228" fill="#ADD1B2" rx="11" ry="11" style="stroke: #A80036; stroke-width: 1.0;"/><path d="M280,224.5 Q280.2031,224 280.4375,223.75 Q280.6719,223.5 280.9375,223.5 Q281.4063,223.5 281.7031,223.7813 Q282,224.0625 282,224.7188 L282,226.2813 Q282,226.9375 281.7188,227.2188 Q281.4375,227.5 281,227.5 Q280.6094,227.5 280.3594,227.3281 Q280.1094,227.1563 280,226.7031 Q279.9531,226.3906 279.7813,226.2188 Q279.4688,225.8906 278.9063,225.7031 Q278.3438,225.5 277.7813,225.5 Q277.0781,225.5 276.4844,225.7813 Q275.9063,226.0625 275.4531,226.6875 Q275,227.3125 275,228.1719 L275,229.0938 Q275,230.125 275.8438,230.8125 Q276.6875,231.5 278.1875,231.5 Q279.0781,231.5 279.7031,231.2969 Q280.0625,231.1875 280.4688,230.8281 Q280.7344,230.625 280.875,230.5625 Q281.0156,230.5 281.1875,230.5 Q281.5156,230.5 281.75,230.7656 Q282,231.0156 282,231.375 Q282,231.7188 281.6563,232.125 Q281.1563,232.7188 280.3594,233.0469 Q279.3125,233.5 278.0313,233.5 Q276.5313,233.5 275.3281,232.9063 Q274.3594,232.4375 273.6719,231.4219 Q273,230.4063 273,229.2031 L273,228.1094 Q273,226.8594 273.5938,225.7656 Q274.2031,224.6719 275.25,224.0938 Q276.3125,223.5 277.5,223.5 Q278.2188,223.5 278.8438,223.75 Q279.4688,224 280,224.5 Z "/><text fill="#000000" font-family="sans-serif" font-size="12" lengthAdjust="spacingAndGlyphs" textLength="102" x="292" y="232.9102">CardTimeoutEvent</text><line style="stroke: #A80036; stroke-width: 1.5;" x1="264" x2="396" y1="244" y2="244"/><line style="stroke: #A80036; stroke-width: 1.5;" x1="264" x2="396" y1="252" y2="252"/><ellipse cx="274" cy="264.418" fill="#84BE84" rx="3" ry="3" style="stroke: #038048; stroke-width: 1.0;"/><text fill="#000000" font-family="sans-serif" font-size="11" lengthAdjust="spacingAndGlyphs" textLength="95" x="283" y="267.4189">CardTimeoutEvent()</text><!--class de.gematik.ti.cardreader.provider.api.events.card.CardUnknownEvent--><rect fill="#FEFECE" filter="url(#f1ldqfzzhjauqz)" height="61.8359" id="de.gematik.ti.cardreader.provider.api.events.card.CardUnknownEvent" style="stroke: #A80036; stroke-width: 1.5;" width="141" x="86.5" y="212"/><ellipse cx="101.5" cy="228" fill="#ADD1B2" rx="11" ry="11" style="stroke: #A80036; stroke-width: 1.0;"/><path d="M103.5,224.5 Q103.7031,224 103.9375,223.75 Q104.1719,223.5 104.4375,223.5 Q104.9063,223.5 105.2031,223.7813 Q105.5,224.0625 105.5,224.7188 L105.5,226.2813 Q105.5,226.9375 105.2188,227.2188 Q104.9375,227.5 104.5,227.5 Q104.1094,227.5 103.8594,227.3281 Q103.6094,227.1563 103.5,226.7031 Q103.4531,226.3906 103.2813,226.2188 Q102.9688,225.8906 102.4063,225.7031 Q101.8438,225.5 101.2813,225.5 Q100.5781,225.5 99.9844,225.7813 Q99.4063,226.0625 98.9531,226.6875 Q98.5,227.3125 98.5,228.1719 L98.5,229.0938 Q98.5,230.125 99.3438,230.8125 Q100.1875,231.5 101.6875,231.5 Q102.5781,231.5 103.2031,231.2969 Q103.5625,231.1875 103.9688,230.8281 Q104.2344,230.625 104.375,230.5625 Q104.5156,230.5 104.6875,230.5 Q105.0156,230.5 105.25,230.7656 Q105.5,231.0156 105.5,231.375 Q105.5,231.7188 105.1563,232.125 Q104.6563,232.7188 103.8594,233.0469 Q102.8125,233.5 101.5313,233.5 Q100.0313,233.5 98.8281,232.9063 Q97.8594,232.4375 97.1719,231.4219 Q96.5,230.4063 96.5,229.2031 L96.5,228.1094 Q96.5,226.8594 97.0938,225.7656 Q97.7031,224.6719 98.75,224.0938 Q99.8125,223.5 101,223.5 Q101.7188,223.5 102.3438,223.75 Q102.9688,224 103.5,224.5 Z "/><text fill="#000000" font-family="sans-serif" font-size="12" lengthAdjust="spacingAndGlyphs" textLength="109" x="115.5" y="232.9102">CardUnknownEvent</text><line style="stroke: #A80036; stroke-width: 1.5;" x1="87.5" x2="226.5" y1="244" y2="244"/><line style="stroke: #A80036; stroke-width: 1.5;" x1="87.5" x2="226.5" y1="252" y2="252"/><ellipse cx="97.5" cy="264.418" fill="#84BE84" rx="3" ry="3" style="stroke: #038048; stroke-width: 1.0;"/><text fill="#000000" font-family="sans-serif" font-size="11" lengthAdjust="spacingAndGlyphs" textLength="104" x="106.5" y="267.4189">CardUnknownEvent()</text><!--link de.gematik.ti.cardreader.provider.api.events.AbstractCardReaderEvent to de.gematik.ti.cardreader.provider.api.events.card.CardAbsentEvent--><path d="M520.727,145.109 C541.751,150.652 563.126,158.073 582,168 C602.735,178.906 622.244,196.415 636.918,211.664 " fill="none" id="de.gematik.ti.cardreader.provider.api.events.AbstractCardReaderEvent-de.gematik.ti.cardreader.provider.api.events.card.CardAbsentEvent" style="stroke: #A80036; stroke-width: 1.0;"/><polygon fill="none" points="519.013,151.897,501.187,140.44,522.267,138.28,519.013,151.897" style="stroke: #A80036; stroke-width: 1.0;"/><!--link de.gematik.ti.cardreader.provider.api.events.AbstractCardReaderEvent to de.gematik.ti.cardreader.provider.api.events.card.CardPresentEvent--><path d="M443.265,168.368 C453.801,182.541 465.518,198.304 475.399,211.596 " fill="none" id="de.gematik.ti.cardreader.provider.api.events.AbstractCardReaderEvent-de.gematik.ti.cardreader.provider.api.events.card.CardPresentEvent" style="stroke: #A80036; stroke-width: 1.0;"/><polygon fill="none" points="437.515,172.367,431.201,152.14,448.751,164.015,437.515,172.367" style="stroke: #A80036; stroke-width: 1.0;"/><!--link de.gematik.ti.cardreader.provider.api.events.AbstractCardReaderEvent to de.gematik.ti.cardreader.provider.api.events.card.CardTimeoutEvent--><path d="M384.735,168.368 C374.199,182.541 362.482,198.304 352.601,211.596 " fill="none" id="de.gematik.ti.cardreader.provider.api.events.AbstractCardReaderEvent-de.gematik.ti.cardreader.provider.api.events.card.CardTimeoutEvent" style="stroke: #A80036; stroke-width: 1.0;"/><polygon fill="none" points="379.249,164.015,396.799,152.14,390.485,172.367,379.249,164.015" style="stroke: #A80036; stroke-width: 1.0;"/><!--link de.gematik.ti.cardreader.provider.api.events.AbstractCardReaderEvent to de.gematik.ti.cardreader.provider.api.events.card.CardUnknownEvent--><path d="M306.967,145.974 C286.127,151.442 264.901,158.615 246,168 C223.862,178.992 202.452,196.504 186.18,211.734 " fill="none" id="de.gematik.ti.cardreader.provider.api.events.AbstractCardReaderEvent-de.gematik.ti.cardreader.provider.api.events.card.CardUnknownEvent" style="stroke: #A80036; stroke-width: 1.0;"/><polygon fill="none" points="305.659,139.089,326.74,141.237,308.921,152.704,305.659,139.089" style="stroke: #A80036; stroke-width: 1.0;"/><!--
@startuml



  namespace de.gematik.ti.cardreader.provider.api {
    namespace events {
      namespace card {
        class de.gematik.ti.cardreader.provider.api.events.card.CardAbsentEvent {
            + CardAbsentEvent()
        }
      }
    }
  }


  namespace de.gematik.ti.cardreader.provider.api {
    namespace events {
      namespace card {
        class de.gematik.ti.cardreader.provider.api.events.card.CardPresentEvent {
            + CardPresentEvent()
        }
      }
    }
  }


  namespace de.gematik.ti.cardreader.provider.api {
    namespace events {
      namespace card {
        class de.gematik.ti.cardreader.provider.api.events.card.CardTimeoutEvent {
            + CardTimeoutEvent()
        }
      }
    }
  }


  namespace de.gematik.ti.cardreader.provider.api {
    namespace events {
      namespace card {
        class de.gematik.ti.cardreader.provider.api.events.card.CardUnknownEvent {
            + CardUnknownEvent()
        }
      }
    }
  }


  de.gematik.ti.cardreader.provider.api.events.card.CardAbsentEvent -up-|> de.gematik.ti.cardreader.provider.api.events.AbstractCardReaderEvent
  de.gematik.ti.cardreader.provider.api.events.card.CardPresentEvent -up-|> de.gematik.ti.cardreader.provider.api.events.AbstractCardReaderEvent
  de.gematik.ti.cardreader.provider.api.events.card.CardTimeoutEvent -up-|> de.gematik.ti.cardreader.provider.api.events.AbstractCardReaderEvent
  de.gematik.ti.cardreader.provider.api.events.card.CardUnknownEvent -up-|> de.gematik.ti.cardreader.provider.api.events.AbstractCardReaderEvent









@enduml

PlantUML version 1.2019.06(Fri May 24 19:10:25 CEST 2019)
(APACHE source distribution)
Java Runtime: OpenJDK Runtime Environment
JVM: OpenJDK 64-Bit Server VM
Java Version: 11.0.4+10-b304.69
Operating System: Windows 7
OS Version: 6.1
Default Encoding: Cp1252
Language: de
Country: DE
--></g></svg>