<?xml version="1.0" encoding="UTF-8" standalone="no"?><svg xmlns="http://www.w3.org/2000/svg" xmlns:xlink="http://www.w3.org/1999/xlink" contentScriptType="application/ecmascript" contentStyleType="text/css" height="918px" preserveAspectRatio="none" style="width:701px;height:918px;" version="1.1" viewBox="0 0 701 918" width="701px" zoomAndPan="magnify"><defs><filter height="300%" id="fyg4edpx7r30x" width="300%" x="-1" y="-1"><feGaussianBlur result="blurOut" stdDeviation="2.0"/><feColorMatrix in="blurOut" result="blurOut2" type="matrix" values="0 0 0 0 0 0 0 0 0 0 0 0 0 0 0 0 0 0 .4 0"/><feOffset dx="4.0" dy="4.0" in="blurOut2" result="blurOut3"/><feBlend in="SourceGraphic" in2="blurOut3" mode="normal"/></filter></defs><g><!--cluster de.gematik.ti.cardreader.provider.api--><polygon fill="#FFFFFF" filter="url(#fyg4edpx7r30x)" points="22,24,290,24,297,47.6094,679,47.6094,679,906,22,906,22,24" style="stroke: #000000; stroke-width: 1.5;"/><line style="stroke: #000000; stroke-width: 1.5;" x1="22" x2="297" y1="47.6094" y2="47.6094"/><text fill="#000000" font-family="sans-serif" font-size="14" font-weight="bold" lengthAdjust="spacingAndGlyphs" textLength="262" x="26" y="40.5332">de.gematik.ti.cardreader.provider.api</text><!--cluster de.gematik.ti.cardreader.provider.api.command--><polygon fill="#FFFFFF" filter="url(#fyg4edpx7r30x)" points="46,68,119,68,126,91.6094,655,91.6094,655,882,46,882,46,68" style="stroke: #000000; stroke-width: 1.5;"/><line style="stroke: #000000; stroke-width: 1.5;" x1="46" x2="126" y1="91.6094" y2="91.6094"/><text fill="#000000" font-family="sans-serif" font-size="14" font-weight="bold" lengthAdjust="spacingAndGlyphs" textLength="67" x="50" y="84.5332">command</text><!--class de.gematik.ti.cardreader.provider.api.command.AbstractApdu--><rect fill="#FEFECE" filter="url(#fyg4edpx7r30x)" height="144.8516" id="de.gematik.ti.cardreader.provider.api.command.AbstractApdu" style="stroke: #A80036; stroke-width: 1.5;" width="261" x="221.5" y="111"/><ellipse cx="310.75" cy="127" fill="#A9DCDF" rx="11" ry="11" style="stroke: #A80036; stroke-width: 1.0;"/><path d="M312.5,128.5 L309.2031,128.5 L308.7656,129.5 L308.7656,129.5 L309.2344,129.5 L309.75,130.125 L309.75,130.5 L309.75,130.875 L309.2344,131.5 L308.7656,131.5 L306.875,131.5 L306.2656,131.5 L305.75,130.875 L305.75,130.5 L305.75,130.125 L306.2656,129.5 L306.875,129.5 L309.1875,123.5 L308.3125,123.5 L307.2656,123.5 L306.75,122.875 L306.75,122.5 L306.75,122.125 L307.2656,121.5 L308.3125,121.5 L311.9844,121.5 L314.6719,129.5 L315.2344,129.5 L315.2344,129.5 L315.75,130.125 L315.75,130.5 L315.75,130.875 L315.2344,131.5 L314.6719,131.5 L312.7813,131.5 L312.2656,131.5 L311.75,130.875 L311.75,130.5 L311.75,130.125 L312.2656,129.5 L312.7813,129.5 L312.7813,129.5 L312.5,128.5 Z M311.9531,126.5 L310.75,122.9219 L309.7188,126.5 L311.9531,126.5 Z "/><text fill="#000000" font-family="sans-serif" font-size="12" font-style="italic" lengthAdjust="spacingAndGlyphs" textLength="74" x="331.25" y="131.9102">AbstractApdu</text><line style="stroke: #A80036; stroke-width: 1.5;" x1="222.5" x2="481.5" y1="143" y2="143"/><ellipse cx="232.5" cy="155.418" fill="none" rx="3" ry="3" style="stroke: #038048; stroke-width: 1.0;"/><text fill="#000000" font-family="sans-serif" font-size="11" lengthAdjust="spacingAndGlyphs" text-decoration="underline" textLength="235" x="241.5" y="158.4189">EXPECTED_LENGTH_WILDCARD_EXTENDED : int</text><ellipse cx="232.5" cy="169.2539" fill="none" rx="3" ry="3" style="stroke: #038048; stroke-width: 1.0;"/><text fill="#000000" font-family="sans-serif" font-size="11" lengthAdjust="spacingAndGlyphs" text-decoration="underline" textLength="218" x="241.5" y="172.2549">EXPECTED_LENGTH_WILDCARD_SHORT : int</text><polygon fill="none" points="232.5,179.0898,228.5,185.0898,236.5,185.0898" style="stroke: #1963A0; stroke-width: 1.0;"/><text fill="#000000" font-family="sans-serif" font-size="11" lengthAdjust="spacingAndGlyphs" text-decoration="underline" textLength="83" x="241.5" y="186.0908">BYTE_MASK : int</text><line style="stroke: #A80036; stroke-width: 1.5;" x1="222.5" x2="481.5" y1="192.5078" y2="192.5078"/><polygon fill="#4177AF" points="232.5,200.9258,228.5,206.9258,236.5,206.9258" style="stroke: #1963A0; stroke-width: 1.0;"/><text fill="#000000" font-family="sans-serif" font-size="11" lengthAdjust="spacingAndGlyphs" text-decoration="underline" textLength="144" x="241.5" y="207.9268">encodeDataLengthExtended()</text><polygon fill="#4177AF" points="232.5,214.7617,228.5,220.7617,236.5,220.7617" style="stroke: #1963A0; stroke-width: 1.0;"/><text fill="#000000" font-family="sans-serif" font-size="11" lengthAdjust="spacingAndGlyphs" text-decoration="underline" textLength="125" x="241.5" y="221.7627">encodeDataLengthShort()</text><polygon fill="#4177AF" points="232.5,228.5977,228.5,234.5977,236.5,234.5977" style="stroke: #1963A0; stroke-width: 1.0;"/><text fill="#000000" font-family="sans-serif" font-size="11" lengthAdjust="spacingAndGlyphs" text-decoration="underline" textLength="167" x="241.5" y="235.5986">encodeExpectedLengthExtended()</text><polygon fill="#4177AF" points="232.5,242.4336,228.5,248.4336,236.5,248.4336" style="stroke: #1963A0; stroke-width: 1.0;"/><text fill="#000000" font-family="sans-serif" font-size="11" lengthAdjust="spacingAndGlyphs" text-decoration="underline" textLength="148" x="241.5" y="249.4346">encodeExpectedLengthShort()</text><!--class de.gematik.ti.cardreader.provider.api.command.AbstractCommandApdu--><rect fill="#FEFECE" filter="url(#fyg4edpx7r30x)" height="380.0625" id="de.gematik.ti.cardreader.provider.api.command.AbstractCommandApdu" style="stroke: #A80036; stroke-width: 1.5;" width="175" x="163.5" y="323"/><ellipse cx="183" cy="339" fill="#A9DCDF" rx="11" ry="11" style="stroke: #A80036; stroke-width: 1.0;"/><path d="M184.75,340.5 L181.4531,340.5 L181.0156,341.5 L181.0156,341.5 L181.4844,341.5 L182,342.125 L182,342.5 L182,342.875 L181.4844,343.5 L181.0156,343.5 L179.125,343.5 L178.5156,343.5 L178,342.875 L178,342.5 L178,342.125 L178.5156,341.5 L179.125,341.5 L181.4375,335.5 L180.5625,335.5 L179.5156,335.5 L179,334.875 L179,334.5 L179,334.125 L179.5156,333.5 L180.5625,333.5 L184.2344,333.5 L186.9219,341.5 L187.4844,341.5 L187.4844,341.5 L188,342.125 L188,342.5 L188,342.875 L187.4844,343.5 L186.9219,343.5 L185.0313,343.5 L184.5156,343.5 L184,342.875 L184,342.5 L184,342.125 L184.5156,341.5 L185.0313,341.5 L185.0313,341.5 L184.75,340.5 Z M184.2031,338.5 L183,334.9219 L181.9688,338.5 L184.2031,338.5 Z "/><text fill="#000000" font-family="sans-serif" font-size="12" font-style="italic" lengthAdjust="spacingAndGlyphs" textLength="133" x="198" y="343.9102">AbstractCommandApdu</text><line style="stroke: #A80036; stroke-width: 1.5;" x1="164.5" x2="337.5" y1="355" y2="355"/><rect fill="none" height="6" style="stroke: #C82930; stroke-width: 1.0;" width="6" x="171.5" y="364.418"/><text fill="#000000" font-family="sans-serif" font-size="11" lengthAdjust="spacingAndGlyphs" textLength="149" x="183.5" y="370.4189">apdu : ByteArrayOutputStream</text><rect fill="none" height="6" style="stroke: #C82930; stroke-width: 1.0;" width="6" x="171.5" y="378.2539"/><text fill="#000000" font-family="sans-serif" font-size="11" lengthAdjust="spacingAndGlyphs" textLength="57" x="183.5" y="384.2549">data : byte[]</text><rect fill="none" height="6" style="stroke: #C82930; stroke-width: 1.0;" width="6" x="171.5" y="392.0898"/><text fill="#000000" font-family="sans-serif" font-size="11" lengthAdjust="spacingAndGlyphs" textLength="70" x="183.5" y="398.0908">header : byte[]</text><rect fill="none" height="6" style="stroke: #C82930; stroke-width: 1.0;" width="6" x="171.5" y="405.9258"/><text fill="#000000" font-family="sans-serif" font-size="11" lengthAdjust="spacingAndGlyphs" textLength="54" x="183.5" y="411.9268">ne : Integer</text><line style="stroke: #A80036; stroke-width: 1.5;" x1="164.5" x2="337.5" y1="418.3438" y2="418.3438"/><ellipse cx="174.5" cy="430.7617" fill="#84BE84" rx="3" ry="3" style="stroke: #038048; stroke-width: 1.0;"/><text fill="#000000" font-family="sans-serif" font-size="11" lengthAdjust="spacingAndGlyphs" textLength="40" x="183.5" y="433.7627">equals()</text><ellipse cx="174.5" cy="444.5977" fill="#84BE84" rx="3" ry="3" style="stroke: #038048; stroke-width: 1.0;"/><text fill="#000000" font-family="sans-serif" font-size="11" lengthAdjust="spacingAndGlyphs" textLength="51" x="183.5" y="447.5986">getBytes()</text><ellipse cx="174.5" cy="458.4336" fill="#84BE84" rx="3" ry="3" style="stroke: #038048; stroke-width: 1.0;"/><text fill="#000000" font-family="sans-serif" font-size="11" lengthAdjust="spacingAndGlyphs" textLength="38" x="183.5" y="461.4346">getCla()</text><ellipse cx="174.5" cy="472.2695" fill="#84BE84" rx="3" ry="3" style="stroke: #038048; stroke-width: 1.0;"/><text fill="#000000" font-family="sans-serif" font-size="11" lengthAdjust="spacingAndGlyphs" textLength="45" x="183.5" y="475.2705">getData()</text><ellipse cx="174.5" cy="486.1055" fill="#84BE84" rx="3" ry="3" style="stroke: #038048; stroke-width: 1.0;"/><text fill="#000000" font-family="sans-serif" font-size="11" lengthAdjust="spacingAndGlyphs" textLength="37" x="183.5" y="489.1064">getIns()</text><ellipse cx="174.5" cy="499.9414" fill="#84BE84" rx="3" ry="3" style="stroke: #038048; stroke-width: 1.0;"/><text fill="#000000" font-family="sans-serif" font-size="11" lengthAdjust="spacingAndGlyphs" textLength="36" x="183.5" y="502.9424">getNc()</text><ellipse cx="174.5" cy="513.7773" fill="#84BE84" rx="3" ry="3" style="stroke: #038048; stroke-width: 1.0;"/><text fill="#000000" font-family="sans-serif" font-size="11" lengthAdjust="spacingAndGlyphs" textLength="36" x="183.5" y="516.7783">getNe()</text><ellipse cx="174.5" cy="527.6133" fill="#84BE84" rx="3" ry="3" style="stroke: #038048; stroke-width: 1.0;"/><text fill="#000000" font-family="sans-serif" font-size="11" lengthAdjust="spacingAndGlyphs" textLength="35" x="183.5" y="530.6143">getP1()</text><ellipse cx="174.5" cy="541.4492" fill="#84BE84" rx="3" ry="3" style="stroke: #038048; stroke-width: 1.0;"/><text fill="#000000" font-family="sans-serif" font-size="11" lengthAdjust="spacingAndGlyphs" textLength="35" x="183.5" y="544.4502">getP2()</text><ellipse cx="174.5" cy="555.2852" fill="#84BE84" rx="3" ry="3" style="stroke: #038048; stroke-width: 1.0;"/><text fill="#000000" font-family="sans-serif" font-size="11" lengthAdjust="spacingAndGlyphs" textLength="57" x="183.5" y="558.2861">hashCode()</text><ellipse cx="174.5" cy="569.1211" fill="#84BE84" rx="3" ry="3" style="stroke: #038048; stroke-width: 1.0;"/><text fill="#000000" font-family="sans-serif" font-size="11" lengthAdjust="spacingAndGlyphs" textLength="45" x="183.5" y="572.1221">toString()</text><polygon fill="#FFFF44" points="174.5,577.957,178.5,581.957,174.5,585.957,170.5,581.957" style="stroke: #B38D22; stroke-width: 1.0;"/><text fill="#000000" font-family="sans-serif" font-size="11" lengthAdjust="spacingAndGlyphs" textLength="45" x="183.5" y="585.958">setData()</text><polygon fill="#FFFF44" points="174.5,591.793,178.5,595.793,174.5,599.793,170.5,595.793" style="stroke: #B38D22; stroke-width: 1.0;"/><text fill="#000000" font-family="sans-serif" font-size="11" lengthAdjust="spacingAndGlyphs" textLength="58" x="183.5" y="599.7939">setHeader()</text><polygon fill="#FFFF44" points="174.5,605.6289,178.5,609.6289,174.5,613.6289,170.5,609.6289" style="stroke: #B38D22; stroke-width: 1.0;"/><text fill="#000000" font-family="sans-serif" font-size="11" lengthAdjust="spacingAndGlyphs" textLength="36" x="183.5" y="613.6299">setNe()</text><rect fill="#F24D5C" height="6" style="stroke: #C82930; stroke-width: 1.0;" width="6" x="171.5" y="621.4648"/><text fill="#000000" font-family="sans-serif" font-size="11" lengthAdjust="spacingAndGlyphs" textLength="51" x="183.5" y="627.4658">calculate()</text><rect fill="#F24D5C" height="6" style="stroke: #C82930; stroke-width: 1.0;" width="6" x="171.5" y="635.3008"/><text fill="#000000" font-family="sans-serif" font-size="11" lengthAdjust="spacingAndGlyphs" textLength="81" x="183.5" y="641.3018">doCase2sOr2e()</text><rect fill="#F24D5C" height="6" style="stroke: #C82930; stroke-width: 1.0;" width="6" x="171.5" y="649.1367"/><text fill="#000000" font-family="sans-serif" font-size="11" lengthAdjust="spacingAndGlyphs" textLength="81" x="183.5" y="655.1377">doCase3sOr3e()</text><rect fill="#F24D5C" height="6" style="stroke: #C82930; stroke-width: 1.0;" width="6" x="171.5" y="662.9727"/><text fill="#000000" font-family="sans-serif" font-size="11" lengthAdjust="spacingAndGlyphs" textLength="81" x="183.5" y="668.9736">doCase4sOr4e()</text><rect fill="#F24D5C" height="6" style="stroke: #C82930; stroke-width: 1.0;" width="6" x="171.5" y="676.8086"/><text fill="#000000" font-family="sans-serif" font-size="11" lengthAdjust="spacingAndGlyphs" textLength="49" x="183.5" y="682.8096">getApdu()</text><rect fill="#F24D5C" height="6" style="stroke: #C82930; stroke-width: 1.0;" width="6" x="171.5" y="690.6445"/><text fill="#000000" font-family="sans-serif" font-size="11" lengthAdjust="spacingAndGlyphs" textLength="90" x="183.5" y="696.6455">resetApduBuffer()</text><!--class de.gematik.ti.cardreader.provider.api.command.AbstractResponseApdu--><rect fill="#FEFECE" filter="url(#fyg4edpx7r30x)" height="186.3594" id="de.gematik.ti.cardreader.provider.api.command.AbstractResponseApdu" style="stroke: #A80036; stroke-width: 1.5;" width="162" x="477" y="420"/><ellipse cx="492" cy="436" fill="#ADD1B2" rx="11" ry="11" style="stroke: #A80036; stroke-width: 1.0;"/><path d="M494,432.5 Q494.2031,432 494.4375,431.75 Q494.6719,431.5 494.9375,431.5 Q495.4063,431.5 495.7031,431.7813 Q496,432.0625 496,432.7188 L496,434.2813 Q496,434.9375 495.7188,435.2188 Q495.4375,435.5 495,435.5 Q494.6094,435.5 494.3594,435.3281 Q494.1094,435.1563 494,434.7031 Q493.9531,434.3906 493.7813,434.2188 Q493.4688,433.8906 492.9063,433.7031 Q492.3438,433.5 491.7813,433.5 Q491.0781,433.5 490.4844,433.7813 Q489.9063,434.0625 489.4531,434.6875 Q489,435.3125 489,436.1719 L489,437.0938 Q489,438.125 489.8438,438.8125 Q490.6875,439.5 492.1875,439.5 Q493.0781,439.5 493.7031,439.2969 Q494.0625,439.1875 494.4688,438.8281 Q494.7344,438.625 494.875,438.5625 Q495.0156,438.5 495.1875,438.5 Q495.5156,438.5 495.75,438.7656 Q496,439.0156 496,439.375 Q496,439.7188 495.6563,440.125 Q495.1563,440.7188 494.3594,441.0469 Q493.3125,441.5 492.0313,441.5 Q490.5313,441.5 489.3281,440.9063 Q488.3594,440.4375 487.6719,439.4219 Q487,438.4063 487,437.2031 L487,436.1094 Q487,434.8594 487.5938,433.7656 Q488.2031,432.6719 489.25,432.0938 Q490.3125,431.5 491.5,431.5 Q492.2188,431.5 492.8438,431.75 Q493.4688,432 494,432.5 Z "/><text fill="#000000" font-family="sans-serif" font-size="12" lengthAdjust="spacingAndGlyphs" textLength="130" x="506" y="440.9102">AbstractResponseApdu</text><line style="stroke: #A80036; stroke-width: 1.5;" x1="478" x2="638" y1="452" y2="452"/><rect fill="none" height="6" style="stroke: #C82930; stroke-width: 1.0;" width="6" x="485" y="461.418"/><text fill="#000000" font-family="sans-serif" font-size="11" lengthAdjust="spacingAndGlyphs" textLength="60" x="497" y="467.4189">apdu : byte[]</text><line style="stroke: #A80036; stroke-width: 1.5;" x1="478" x2="638" y1="473.8359" y2="473.8359"/><ellipse cx="488" cy="486.2539" fill="#84BE84" rx="3" ry="3" style="stroke: #038048; stroke-width: 1.0;"/><text fill="#000000" font-family="sans-serif" font-size="11" lengthAdjust="spacingAndGlyphs" textLength="40" x="497" y="489.2549">equals()</text><ellipse cx="488" cy="500.0898" fill="#84BE84" rx="3" ry="3" style="stroke: #038048; stroke-width: 1.0;"/><text fill="#000000" font-family="sans-serif" font-size="11" lengthAdjust="spacingAndGlyphs" textLength="51" x="497" y="503.0908">getBytes()</text><ellipse cx="488" cy="513.9258" fill="#84BE84" rx="3" ry="3" style="stroke: #038048; stroke-width: 1.0;"/><text fill="#000000" font-family="sans-serif" font-size="11" lengthAdjust="spacingAndGlyphs" textLength="45" x="497" y="516.9268">getData()</text><ellipse cx="488" cy="527.7617" fill="#84BE84" rx="3" ry="3" style="stroke: #038048; stroke-width: 1.0;"/><text fill="#000000" font-family="sans-serif" font-size="11" lengthAdjust="spacingAndGlyphs" textLength="34" x="497" y="530.7627">getNr()</text><ellipse cx="488" cy="541.5977" fill="#84BE84" rx="3" ry="3" style="stroke: #038048; stroke-width: 1.0;"/><text fill="#000000" font-family="sans-serif" font-size="11" lengthAdjust="spacingAndGlyphs" textLength="40" x="497" y="544.5986">getSW()</text><ellipse cx="488" cy="555.4336" fill="#84BE84" rx="3" ry="3" style="stroke: #038048; stroke-width: 1.0;"/><text fill="#000000" font-family="sans-serif" font-size="11" lengthAdjust="spacingAndGlyphs" textLength="46" x="497" y="558.4346">getSW1()</text><ellipse cx="488" cy="569.2695" fill="#84BE84" rx="3" ry="3" style="stroke: #038048; stroke-width: 1.0;"/><text fill="#000000" font-family="sans-serif" font-size="11" lengthAdjust="spacingAndGlyphs" textLength="46" x="497" y="572.2705">getSW2()</text><ellipse cx="488" cy="583.1055" fill="#84BE84" rx="3" ry="3" style="stroke: #038048; stroke-width: 1.0;"/><text fill="#000000" font-family="sans-serif" font-size="11" lengthAdjust="spacingAndGlyphs" textLength="57" x="497" y="586.1064">hashCode()</text><polygon fill="#4177AF" points="488,592.9414,484,598.9414,492,598.9414" style="stroke: #1963A0; stroke-width: 1.0;"/><text fill="#000000" font-family="sans-serif" font-size="11" lengthAdjust="spacingAndGlyphs" textLength="125" x="497" y="599.9424">AbstractResponseApdu()</text><!--class de.gematik.ti.cardreader.provider.api.command.CommandApdu--><rect fill="#FEFECE" filter="url(#fyg4edpx7r30x)" height="103.3438" id="de.gematik.ti.cardreader.provider.api.command.CommandApdu" style="stroke: #A80036; stroke-width: 1.5;" width="119" x="191.5" y="763"/><ellipse cx="206.5" cy="779" fill="#ADD1B2" rx="11" ry="11" style="stroke: #A80036; stroke-width: 1.0;"/><path d="M208.5,775.5 Q208.7031,775 208.9375,774.75 Q209.1719,774.5 209.4375,774.5 Q209.9063,774.5 210.2031,774.7813 Q210.5,775.0625 210.5,775.7188 L210.5,777.2813 Q210.5,777.9375 210.2188,778.2188 Q209.9375,778.5 209.5,778.5 Q209.1094,778.5 208.8594,778.3281 Q208.6094,778.1563 208.5,777.7031 Q208.4531,777.3906 208.2813,777.2188 Q207.9688,776.8906 207.4063,776.7031 Q206.8438,776.5 206.2813,776.5 Q205.5781,776.5 204.9844,776.7813 Q204.4063,777.0625 203.9531,777.6875 Q203.5,778.3125 203.5,779.1719 L203.5,780.0938 Q203.5,781.125 204.3438,781.8125 Q205.1875,782.5 206.6875,782.5 Q207.5781,782.5 208.2031,782.2969 Q208.5625,782.1875 208.9688,781.8281 Q209.2344,781.625 209.375,781.5625 Q209.5156,781.5 209.6875,781.5 Q210.0156,781.5 210.25,781.7656 Q210.5,782.0156 210.5,782.375 Q210.5,782.7188 210.1563,783.125 Q209.6563,783.7188 208.8594,784.0469 Q207.8125,784.5 206.5313,784.5 Q205.0313,784.5 203.8281,783.9063 Q202.8594,783.4375 202.1719,782.4219 Q201.5,781.4063 201.5,780.2031 L201.5,779.1094 Q201.5,777.8594 202.0938,776.7656 Q202.7031,775.6719 203.75,775.0938 Q204.8125,774.5 206,774.5 Q206.7188,774.5 207.3438,774.75 Q207.9688,775 208.5,775.5 Z "/><text fill="#000000" font-family="sans-serif" font-size="12" lengthAdjust="spacingAndGlyphs" textLength="87" x="220.5" y="783.9102">CommandApdu</text><line style="stroke: #A80036; stroke-width: 1.5;" x1="192.5" x2="309.5" y1="795" y2="795"/><line style="stroke: #A80036; stroke-width: 1.5;" x1="192.5" x2="309.5" y1="803" y2="803"/><ellipse cx="202.5" cy="815.418" fill="#84BE84" rx="3" ry="3" style="stroke: #038048; stroke-width: 1.0;"/><text fill="#000000" font-family="sans-serif" font-size="11" lengthAdjust="spacingAndGlyphs" textLength="81" x="211.5" y="818.4189">CommandApdu()</text><ellipse cx="202.5" cy="829.2539" fill="#84BE84" rx="3" ry="3" style="stroke: #038048; stroke-width: 1.0;"/><text fill="#000000" font-family="sans-serif" font-size="11" lengthAdjust="spacingAndGlyphs" textLength="81" x="211.5" y="832.2549">CommandApdu()</text><ellipse cx="202.5" cy="843.0898" fill="#84BE84" rx="3" ry="3" style="stroke: #038048; stroke-width: 1.0;"/><text fill="#000000" font-family="sans-serif" font-size="11" lengthAdjust="spacingAndGlyphs" textLength="81" x="211.5" y="846.0908">CommandApdu()</text><ellipse cx="202.5" cy="856.9258" fill="#84BE84" rx="3" ry="3" style="stroke: #038048; stroke-width: 1.0;"/><text fill="#000000" font-family="sans-serif" font-size="11" lengthAdjust="spacingAndGlyphs" textLength="81" x="211.5" y="859.9268">CommandApdu()</text><!--class de.gematik.ti.cardreader.provider.api.command.ICommandApdu--><rect fill="#FEFECE" filter="url(#fyg4edpx7r30x)" height="158.6875" id="de.gematik.ti.cardreader.provider.api.command.ICommandApdu" style="stroke: #A80036; stroke-width: 1.5;" width="124" x="62" y="104"/><ellipse cx="77" cy="120" fill="#B4A7E5" rx="11" ry="11" style="stroke: #A80036; stroke-width: 1.0;"/><path d="M78,117 L78,123 L80,123 L80.4844,123 L81,123.625 L81,124 L81,124.375 L80.4844,125 L80,125 L74,125 L73.5156,125 L73,124.375 L73,124 L73,123.625 L73.5156,123 L74,123 L76,123 L76,117 L74,117 L73.5156,117 L73,116.375 L73,116 L73,115.625 L73.5156,115 L74,115 L80,115 L80.4844,115 L81,115.625 L81,116 L81,116.375 L80.4844,117 L80,117 L78,117 Z "/><text fill="#000000" font-family="sans-serif" font-size="12" font-style="italic" lengthAdjust="spacingAndGlyphs" textLength="92" x="91" y="124.9102">ICommandApdu</text><line style="stroke: #A80036; stroke-width: 1.5;" x1="63" x2="185" y1="136" y2="136"/><line style="stroke: #A80036; stroke-width: 1.5;" x1="63" x2="185" y1="144" y2="144"/><ellipse cx="73" cy="156.418" fill="#84BE84" rx="3" ry="3" style="stroke: #038048; stroke-width: 1.0;"/><text fill="#000000" font-family="sans-serif" font-size="11" font-style="italic" lengthAdjust="spacingAndGlyphs" textLength="50" x="82" y="159.4189">getBytes()</text><ellipse cx="73" cy="170.2539" fill="#84BE84" rx="3" ry="3" style="stroke: #038048; stroke-width: 1.0;"/><text fill="#000000" font-family="sans-serif" font-size="11" font-style="italic" lengthAdjust="spacingAndGlyphs" textLength="40" x="82" y="173.2549">getCla()</text><ellipse cx="73" cy="184.0898" fill="#84BE84" rx="3" ry="3" style="stroke: #038048; stroke-width: 1.0;"/><text fill="#000000" font-family="sans-serif" font-size="11" font-style="italic" lengthAdjust="spacingAndGlyphs" textLength="46" x="82" y="187.0908">getData()</text><ellipse cx="73" cy="197.9258" fill="#84BE84" rx="3" ry="3" style="stroke: #038048; stroke-width: 1.0;"/><text fill="#000000" font-family="sans-serif" font-size="11" font-style="italic" lengthAdjust="spacingAndGlyphs" textLength="38" x="82" y="200.9268">getIns()</text><ellipse cx="73" cy="211.7617" fill="#84BE84" rx="3" ry="3" style="stroke: #038048; stroke-width: 1.0;"/><text fill="#000000" font-family="sans-serif" font-size="11" font-style="italic" lengthAdjust="spacingAndGlyphs" textLength="37" x="82" y="214.7627">getNc()</text><ellipse cx="73" cy="225.5977" fill="#84BE84" rx="3" ry="3" style="stroke: #038048; stroke-width: 1.0;"/><text fill="#000000" font-family="sans-serif" font-size="11" font-style="italic" lengthAdjust="spacingAndGlyphs" textLength="37" x="82" y="228.5986">getNe()</text><ellipse cx="73" cy="239.4336" fill="#84BE84" rx="3" ry="3" style="stroke: #038048; stroke-width: 1.0;"/><text fill="#000000" font-family="sans-serif" font-size="11" font-style="italic" lengthAdjust="spacingAndGlyphs" textLength="36" x="82" y="242.4346">getP1()</text><ellipse cx="73" cy="253.2695" fill="#84BE84" rx="3" ry="3" style="stroke: #038048; stroke-width: 1.0;"/><text fill="#000000" font-family="sans-serif" font-size="11" font-style="italic" lengthAdjust="spacingAndGlyphs" textLength="36" x="82" y="256.2705">getP2()</text><!--class de.gematik.ti.cardreader.provider.api.command.IResponseApdu--><rect fill="#FEFECE" filter="url(#fyg4edpx7r30x)" height="131.0156" id="de.gematik.ti.cardreader.provider.api.command.IResponseApdu" style="stroke: #A80036; stroke-width: 1.5;" width="121" x="517.5" y="118"/><ellipse cx="532.5" cy="134" fill="#B4A7E5" rx="11" ry="11" style="stroke: #A80036; stroke-width: 1.0;"/><path d="M533.5,131 L533.5,137 L535.5,137 L535.9844,137 L536.5,137.625 L536.5,138 L536.5,138.375 L535.9844,139 L535.5,139 L529.5,139 L529.0156,139 L528.5,138.375 L528.5,138 L528.5,137.625 L529.0156,137 L529.5,137 L531.5,137 L531.5,131 L529.5,131 L529.0156,131 L528.5,130.375 L528.5,130 L528.5,129.625 L529.0156,129 L529.5,129 L535.5,129 L535.9844,129 L536.5,129.625 L536.5,130 L536.5,130.375 L535.9844,131 L535.5,131 L533.5,131 Z "/><text fill="#000000" font-family="sans-serif" font-size="12" font-style="italic" lengthAdjust="spacingAndGlyphs" textLength="89" x="546.5" y="138.9102">IResponseApdu</text><line style="stroke: #A80036; stroke-width: 1.5;" x1="518.5" x2="637.5" y1="150" y2="150"/><line style="stroke: #A80036; stroke-width: 1.5;" x1="518.5" x2="637.5" y1="158" y2="158"/><ellipse cx="528.5" cy="170.418" fill="#84BE84" rx="3" ry="3" style="stroke: #038048; stroke-width: 1.0;"/><text fill="#000000" font-family="sans-serif" font-size="11" font-style="italic" lengthAdjust="spacingAndGlyphs" textLength="50" x="537.5" y="173.4189">getBytes()</text><ellipse cx="528.5" cy="184.2539" fill="#84BE84" rx="3" ry="3" style="stroke: #038048; stroke-width: 1.0;"/><text fill="#000000" font-family="sans-serif" font-size="11" font-style="italic" lengthAdjust="spacingAndGlyphs" textLength="46" x="537.5" y="187.2549">getData()</text><ellipse cx="528.5" cy="198.0898" fill="#84BE84" rx="3" ry="3" style="stroke: #038048; stroke-width: 1.0;"/><text fill="#000000" font-family="sans-serif" font-size="11" font-style="italic" lengthAdjust="spacingAndGlyphs" textLength="35" x="537.5" y="201.0908">getNr()</text><ellipse cx="528.5" cy="211.9258" fill="#84BE84" rx="3" ry="3" style="stroke: #038048; stroke-width: 1.0;"/><text fill="#000000" font-family="sans-serif" font-size="11" font-style="italic" lengthAdjust="spacingAndGlyphs" textLength="41" x="537.5" y="214.9268">getSW()</text><ellipse cx="528.5" cy="225.7617" fill="#84BE84" rx="3" ry="3" style="stroke: #038048; stroke-width: 1.0;"/><text fill="#000000" font-family="sans-serif" font-size="11" font-style="italic" lengthAdjust="spacingAndGlyphs" textLength="47" x="537.5" y="228.7627">getSW1()</text><ellipse cx="528.5" cy="239.5977" fill="#84BE84" rx="3" ry="3" style="stroke: #038048; stroke-width: 1.0;"/><text fill="#000000" font-family="sans-serif" font-size="11" font-style="italic" lengthAdjust="spacingAndGlyphs" textLength="47" x="537.5" y="242.5986">getSW2()</text><!--class de.gematik.ti.cardreader.provider.api.command.ResponseApdu--><rect fill="#FEFECE" filter="url(#fyg4edpx7r30x)" height="61.8359" id="de.gematik.ti.cardreader.provider.api.command.ResponseApdu" style="stroke: #A80036; stroke-width: 1.5;" width="118" x="499" y="783.5"/><ellipse cx="514" cy="799.5" fill="#ADD1B2" rx="11" ry="11" style="stroke: #A80036; stroke-width: 1.0;"/><path d="M516,796 Q516.2031,795.5 516.4375,795.25 Q516.6719,795 516.9375,795 Q517.4063,795 517.7031,795.2813 Q518,795.5625 518,796.2188 L518,797.7813 Q518,798.4375 517.7188,798.7188 Q517.4375,799 517,799 Q516.6094,799 516.3594,798.8281 Q516.1094,798.6563 516,798.2031 Q515.9531,797.8906 515.7813,797.7188 Q515.4688,797.3906 514.9063,797.2031 Q514.3438,797 513.7813,797 Q513.0781,797 512.4844,797.2813 Q511.9063,797.5625 511.4531,798.1875 Q511,798.8125 511,799.6719 L511,800.5938 Q511,801.625 511.8438,802.3125 Q512.6875,803 514.1875,803 Q515.0781,803 515.7031,802.7969 Q516.0625,802.6875 516.4688,802.3281 Q516.7344,802.125 516.875,802.0625 Q517.0156,802 517.1875,802 Q517.5156,802 517.75,802.2656 Q518,802.5156 518,802.875 Q518,803.2188 517.6563,803.625 Q517.1563,804.2188 516.3594,804.5469 Q515.3125,805 514.0313,805 Q512.5313,805 511.3281,804.4063 Q510.3594,803.9375 509.6719,802.9219 Q509,801.9063 509,800.7031 L509,799.6094 Q509,798.3594 509.5938,797.2656 Q510.2031,796.1719 511.25,795.5938 Q512.3125,795 513.5,795 Q514.2188,795 514.8438,795.25 Q515.4688,795.5 516,796 Z "/><text fill="#000000" font-family="sans-serif" font-size="12" lengthAdjust="spacingAndGlyphs" textLength="86" x="528" y="804.4102">ResponseApdu</text><line style="stroke: #A80036; stroke-width: 1.5;" x1="500" x2="616" y1="815.5" y2="815.5"/><line style="stroke: #A80036; stroke-width: 1.5;" x1="500" x2="616" y1="823.5" y2="823.5"/><ellipse cx="510" cy="835.918" fill="#84BE84" rx="3" ry="3" style="stroke: #038048; stroke-width: 1.0;"/><text fill="#000000" font-family="sans-serif" font-size="11" lengthAdjust="spacingAndGlyphs" textLength="83" x="519" y="838.9189">ResponseApdu()</text><!--link de.gematik.ti.cardreader.provider.api.command.ICommandApdu to de.gematik.ti.cardreader.provider.api.command.AbstractCommandApdu--><path d="M161.817,282.02 C166.897,295.121 172.241,308.902 177.684,322.938 " fill="none" id="de.gematik.ti.cardreader.provider.api.command.ICommandApdu-de.gematik.ti.cardreader.provider.api.command.AbstractCommandApdu" style="stroke: #A80036; stroke-width: 1.0; stroke-dasharray: 7.0,7.0;"/><polygon fill="none" points="155.286,284.539,154.581,263.361,168.339,279.477,155.286,284.539" style="stroke: #A80036; stroke-width: 1.0;"/><!--link de.gematik.ti.cardreader.provider.api.command.AbstractApdu to de.gematik.ti.cardreader.provider.api.command.AbstractCommandApdu--><path d="M323.888,275.654 C319.296,290.547 314.393,306.444 309.384,322.686 " fill="none" id="de.gematik.ti.cardreader.provider.api.command.AbstractApdu-de.gematik.ti.cardreader.provider.api.command.AbstractCommandApdu" style="stroke: #A80036; stroke-width: 1.0;"/><polygon fill="none" points="317.252,273.42,329.835,256.371,330.63,277.546,317.252,273.42" style="stroke: #A80036; stroke-width: 1.0;"/><!--link de.gematik.ti.cardreader.provider.api.command.IResponseApdu to de.gematik.ti.cardreader.provider.api.command.AbstractResponseApdu--><path d="M572.825,269.233 C570.007,315.393 566.515,372.573 563.628,419.842 " fill="none" id="de.gematik.ti.cardreader.provider.api.command.IResponseApdu-de.gematik.ti.cardreader.provider.api.command.AbstractResponseApdu" style="stroke: #A80036; stroke-width: 1.0; stroke-dasharray: 7.0,7.0;"/><polygon fill="none" points="565.842,268.74,574.049,249.203,579.816,269.593,565.842,268.74" style="stroke: #A80036; stroke-width: 1.0;"/><!--link de.gematik.ti.cardreader.provider.api.command.AbstractCommandApdu to de.gematik.ti.cardreader.provider.api.command.CommandApdu--><path d="M251,723.255 C251,737.574 251,751.026 251,762.953 " fill="none" id="de.gematik.ti.cardreader.provider.api.command.AbstractCommandApdu-de.gematik.ti.cardreader.provider.api.command.CommandApdu" style="stroke: #A80036; stroke-width: 1.0;"/><polygon fill="none" points="244,723.253,251,703.253,258,723.253,244,723.253" style="stroke: #A80036; stroke-width: 1.0;"/><!--link de.gematik.ti.cardreader.provider.api.command.AbstractResponseApdu to de.gematik.ti.cardreader.provider.api.command.ResponseApdu--><path d="M558,626.621 C558,682.855 558,746.546 558,783.169 " fill="none" id="de.gematik.ti.cardreader.provider.api.command.AbstractResponseApdu-de.gematik.ti.cardreader.provider.api.command.ResponseApdu" style="stroke: #A80036; stroke-width: 1.0;"/><polygon fill="none" points="551,626.304,558,606.304,565,626.304,551,626.304" style="stroke: #A80036; stroke-width: 1.0;"/><!--
@startuml



  namespace de.gematik.ti.cardreader.provider.api {
    namespace command {
      abstract class de.gematik.ti.cardreader.provider.api.command.AbstractApdu {
          {static} + EXPECTED_LENGTH_WILDCARD_EXTENDED : int
          {static} + EXPECTED_LENGTH_WILDCARD_SHORT : int
          {static} ~ BYTE_MASK : int
          {static} ~ encodeDataLengthExtended()
          {static} ~ encodeDataLengthShort()
          {static} ~ encodeExpectedLengthExtended()
          {static} ~ encodeExpectedLengthShort()
      }
    }
  }


  namespace de.gematik.ti.cardreader.provider.api {
    namespace command {
      abstract class de.gematik.ti.cardreader.provider.api.command.AbstractCommandApdu {
          - apdu : ByteArrayOutputStream
          - data : byte[]
          - header : byte[]
          - ne : Integer
          + equals()
          + getBytes()
          + getCla()
          + getData()
          + getIns()
          + getNc()
          + getNe()
          + getP1()
          + getP2()
          + hashCode()
          + toString()
          # setData()
          # setHeader()
          # setNe()
          - calculate()
          - doCase2sOr2e()
          - doCase3sOr3e()
          - doCase4sOr4e()
          - getApdu()
          - resetApduBuffer()
      }
    }
  }


  namespace de.gematik.ti.cardreader.provider.api {
    namespace command {
      class de.gematik.ti.cardreader.provider.api.command.AbstractResponseApdu {
          - apdu : byte[]
          + equals()
          + getBytes()
          + getData()
          + getNr()
          + getSW()
          + getSW1()
          + getSW2()
          + hashCode()
          ~ AbstractResponseApdu()
      }
    }
  }


  namespace de.gematik.ti.cardreader.provider.api {
    namespace command {
      class de.gematik.ti.cardreader.provider.api.command.CommandApdu {
          + CommandApdu()
          + CommandApdu()
          + CommandApdu()
          + CommandApdu()
      }
    }
  }


  namespace de.gematik.ti.cardreader.provider.api {
    namespace command {
      interface de.gematik.ti.cardreader.provider.api.command.ICommandApdu {
          {abstract} + getBytes()
          {abstract} + getCla()
          {abstract} + getData()
          {abstract} + getIns()
          {abstract} + getNc()
          {abstract} + getNe()
          {abstract} + getP1()
          {abstract} + getP2()
      }
    }
  }


  namespace de.gematik.ti.cardreader.provider.api {
    namespace command {
      interface de.gematik.ti.cardreader.provider.api.command.IResponseApdu {
          {abstract} + getBytes()
          {abstract} + getData()
          {abstract} + getNr()
          {abstract} + getSW()
          {abstract} + getSW1()
          {abstract} + getSW2()
      }
    }
  }


  namespace de.gematik.ti.cardreader.provider.api {
    namespace command {
      class de.gematik.ti.cardreader.provider.api.command.ResponseApdu {
          + ResponseApdu()
      }
    }
  }


  de.gematik.ti.cardreader.provider.api.command.AbstractCommandApdu .up.|> de.gematik.ti.cardreader.provider.api.command.ICommandApdu
  de.gematik.ti.cardreader.provider.api.command.AbstractCommandApdu -up-|> de.gematik.ti.cardreader.provider.api.command.AbstractApdu
  de.gematik.ti.cardreader.provider.api.command.AbstractResponseApdu .up.|> de.gematik.ti.cardreader.provider.api.command.IResponseApdu
  de.gematik.ti.cardreader.provider.api.command.CommandApdu -up-|> de.gematik.ti.cardreader.provider.api.command.AbstractCommandApdu
  de.gematik.ti.cardreader.provider.api.command.ResponseApdu -up-|> de.gematik.ti.cardreader.provider.api.command.AbstractResponseApdu









@enduml

PlantUML version 1.2019.06(Fri May 24 19:10:25 CEST 2019)
(APACHE source distribution)
Java Runtime: OpenJDK Runtime Environment
JVM: OpenJDK 64-Bit Server VM
Java Version: 11.0.4+10-b304.69
Operating System: Windows 7
OS Version: 6.1
Default Encoding: Cp1252
Language: de
Country: DE
--></g></svg>