<?xml version="1.0" encoding="UTF-8" standalone="no"?><svg xmlns="http://www.w3.org/2000/svg" xmlns:xlink="http://www.w3.org/1999/xlink" contentScriptType="application/ecmascript" contentStyleType="text/css" height="602px" preserveAspectRatio="none" style="width:322px;height:602px;" version="1.1" viewBox="0 0 322 602" width="322px" zoomAndPan="magnify"><defs><filter height="300%" id="f1suhdrvszpxt6" width="300%" x="-1" y="-1"><feGaussianBlur result="blurOut" stdDeviation="2.0"/><feColorMatrix in="blurOut" result="blurOut2" type="matrix" values="0 0 0 0 0 0 0 0 0 0 0 0 0 0 0 0 0 0 .4 0"/><feOffset dx="4.0" dy="4.0" in="blurOut2" result="blurOut3"/><feBlend in="SourceGraphic" in2="blurOut3" mode="normal"/></filter></defs><g><!--cluster de.gematik.ti.cardreader.provider.api--><polygon fill="#FFFFFF" filter="url(#f1suhdrvszpxt6)" points="22,24,290,24,297,47.6094,300,47.6094,300,590,22,590,22,24" style="stroke: #000000; stroke-width: 1.5;"/><line style="stroke: #000000; stroke-width: 1.5;" x1="22" x2="297" y1="47.6094" y2="47.6094"/><text fill="#000000" font-family="sans-serif" font-size="14" font-weight="bold" lengthAdjust="spacingAndGlyphs" textLength="262" x="26" y="40.5332">de.gematik.ti.cardreader.provider.api</text><!--cluster de.gematik.ti.cardreader.provider.api.entities--><polygon fill="#FFFFFF" filter="url(#f1suhdrvszpxt6)" points="74,68,133,68,140,91.6094,248,91.6094,248,566,74,566,74,68" style="stroke: #000000; stroke-width: 1.5;"/><line style="stroke: #000000; stroke-width: 1.5;" x1="74" x2="140" y1="91.6094" y2="91.6094"/><text fill="#000000" font-family="sans-serif" font-size="14" font-weight="bold" lengthAdjust="spacingAndGlyphs" textLength="53" x="78" y="84.5332">entities</text><!--class de.gematik.ti.cardreader.provider.api.entities.IProviderDescriptor--><rect fill="#FEFECE" filter="url(#f1suhdrvszpxt6)" height="117.1797" id="de.gematik.ti.cardreader.provider.api.entities.IProviderDescriptor" style="stroke: #A80036; stroke-width: 1.5;" width="138" x="92" y="104"/><ellipse cx="107" cy="120" fill="#B4A7E5" rx="11" ry="11" style="stroke: #A80036; stroke-width: 1.0;"/><path d="M108,117 L108,123 L110,123 L110.4844,123 L111,123.625 L111,124 L111,124.375 L110.4844,125 L110,125 L104,125 L103.5156,125 L103,124.375 L103,124 L103,123.625 L103.5156,123 L104,123 L106,123 L106,117 L104,117 L103.5156,117 L103,116.375 L103,116 L103,115.625 L103.5156,115 L104,115 L110,115 L110.4844,115 L111,115.625 L111,116 L111,116.375 L110.4844,117 L110,117 L108,117 Z "/><text fill="#000000" font-family="sans-serif" font-size="12" font-style="italic" lengthAdjust="spacingAndGlyphs" textLength="106" x="121" y="124.9102">IProviderDescriptor</text><line style="stroke: #A80036; stroke-width: 1.5;" x1="93" x2="229" y1="136" y2="136"/><line style="stroke: #A80036; stroke-width: 1.5;" x1="93" x2="229" y1="144" y2="144"/><ellipse cx="103" cy="156.418" fill="#84BE84" rx="3" ry="3" style="stroke: #038048; stroke-width: 1.0;"/><text fill="#000000" font-family="sans-serif" font-size="11" font-style="italic" lengthAdjust="spacingAndGlyphs" textLength="81" x="112" y="159.4189">getClassName()</text><ellipse cx="103" cy="170.2539" fill="#84BE84" rx="3" ry="3" style="stroke: #038048; stroke-width: 1.0;"/><text fill="#000000" font-family="sans-serif" font-size="11" font-style="italic" lengthAdjust="spacingAndGlyphs" textLength="80" x="112" y="173.2549">getDescription()</text><ellipse cx="103" cy="184.0898" fill="#84BE84" rx="3" ry="3" style="stroke: #038048; stroke-width: 1.0;"/><text fill="#000000" font-family="sans-serif" font-size="11" font-style="italic" lengthAdjust="spacingAndGlyphs" textLength="62" x="112" y="187.0908">getLicense()</text><ellipse cx="103" cy="197.9258" fill="#84BE84" rx="3" ry="3" style="stroke: #038048; stroke-width: 1.0;"/><text fill="#000000" font-family="sans-serif" font-size="11" font-style="italic" lengthAdjust="spacingAndGlyphs" textLength="52" x="112" y="200.9268">getName()</text><ellipse cx="103" cy="211.7617" fill="#84BE84" rx="3" ry="3" style="stroke: #038048; stroke-width: 1.0;"/><text fill="#000000" font-family="sans-serif" font-size="11" font-style="italic" lengthAdjust="spacingAndGlyphs" textLength="106" x="112" y="214.7627">getShortDescription()</text><!--class de.gematik.ti.cardreader.provider.api.entities.ProviderDescriptor--><rect fill="#FEFECE" filter="url(#f1suhdrvszpxt6)" height="269.375" id="de.gematik.ti.cardreader.provider.api.entities.ProviderDescriptor" style="stroke: #A80036; stroke-width: 1.5;" width="142" x="90" y="281"/><ellipse cx="108.6" cy="297" fill="#ADD1B2" rx="11" ry="11" style="stroke: #A80036; stroke-width: 1.0;"/><path d="M110.6,293.5 Q110.8031,293 111.0375,292.75 Q111.2719,292.5 111.5375,292.5 Q112.0063,292.5 112.3031,292.7813 Q112.6,293.0625 112.6,293.7188 L112.6,295.2813 Q112.6,295.9375 112.3188,296.2188 Q112.0375,296.5 111.6,296.5 Q111.2094,296.5 110.9594,296.3281 Q110.7094,296.1563 110.6,295.7031 Q110.5531,295.3906 110.3813,295.2188 Q110.0688,294.8906 109.5063,294.7031 Q108.9438,294.5 108.3813,294.5 Q107.6781,294.5 107.0844,294.7813 Q106.5063,295.0625 106.0531,295.6875 Q105.6,296.3125 105.6,297.1719 L105.6,298.0938 Q105.6,299.125 106.4438,299.8125 Q107.2875,300.5 108.7875,300.5 Q109.6781,300.5 110.3031,300.2969 Q110.6625,300.1875 111.0688,299.8281 Q111.3344,299.625 111.475,299.5625 Q111.6156,299.5 111.7875,299.5 Q112.1156,299.5 112.35,299.7656 Q112.6,300.0156 112.6,300.375 Q112.6,300.7188 112.2563,301.125 Q111.7563,301.7188 110.9594,302.0469 Q109.9125,302.5 108.6313,302.5 Q107.1313,302.5 105.9281,301.9063 Q104.9594,301.4375 104.2719,300.4219 Q103.6,299.4063 103.6,298.2031 L103.6,297.1094 Q103.6,295.8594 104.1938,294.7656 Q104.8031,293.6719 105.85,293.0938 Q106.9125,292.5 108.1,292.5 Q108.8188,292.5 109.4438,292.75 Q110.0688,293 110.6,293.5 Z "/><text fill="#000000" font-family="sans-serif" font-size="12" lengthAdjust="spacingAndGlyphs" textLength="102" x="123.4" y="301.9102">ProviderDescriptor</text><line style="stroke: #A80036; stroke-width: 1.5;" x1="91" x2="231" y1="313" y2="313"/><rect fill="none" height="6" style="stroke: #C82930; stroke-width: 1.0;" width="6" x="98" y="322.418"/><text fill="#000000" font-family="sans-serif" font-size="11" lengthAdjust="spacingAndGlyphs" textLength="90" x="110" y="328.4189">className : String</text><rect fill="none" height="6" style="stroke: #C82930; stroke-width: 1.0;" width="6" x="98" y="336.2539"/><text fill="#000000" font-family="sans-serif" font-size="11" lengthAdjust="spacingAndGlyphs" textLength="90" x="110" y="342.2549">description : String</text><rect fill="none" height="6" style="stroke: #C82930; stroke-width: 1.0;" width="6" x="98" y="350.0898"/><text fill="#000000" font-family="sans-serif" font-size="11" lengthAdjust="spacingAndGlyphs" textLength="71" x="110" y="356.0908">license : String</text><rect fill="none" height="6" style="stroke: #C82930; stroke-width: 1.0;" width="6" x="98" y="363.9258"/><text fill="#000000" font-family="sans-serif" font-size="11" lengthAdjust="spacingAndGlyphs" textLength="63" x="110" y="369.9268">name : String</text><rect fill="none" height="6" style="stroke: #C82930; stroke-width: 1.0;" width="6" x="98" y="377.7617"/><text fill="#000000" font-family="sans-serif" font-size="11" lengthAdjust="spacingAndGlyphs" text-decoration="underline" textLength="109" x="110" y="383.7627">serialVersionUID : long</text><rect fill="none" height="6" style="stroke: #C82930; stroke-width: 1.0;" width="6" x="98" y="391.5977"/><text fill="#000000" font-family="sans-serif" font-size="11" lengthAdjust="spacingAndGlyphs" textLength="116" x="110" y="397.5986">shortDescription : String</text><line style="stroke: #A80036; stroke-width: 1.5;" x1="91" x2="231" y1="404.0156" y2="404.0156"/><ellipse cx="101" cy="416.4336" fill="#84BE84" rx="3" ry="3" style="stroke: #038048; stroke-width: 1.0;"/><text fill="#000000" font-family="sans-serif" font-size="11" lengthAdjust="spacingAndGlyphs" textLength="98" x="110" y="419.4346">ProviderDescriptor()</text><ellipse cx="101" cy="430.2695" fill="#84BE84" rx="3" ry="3" style="stroke: #038048; stroke-width: 1.0;"/><text fill="#000000" font-family="sans-serif" font-size="11" lengthAdjust="spacingAndGlyphs" textLength="77" x="110" y="433.2705">getClassName()</text><ellipse cx="101" cy="444.1055" fill="#84BE84" rx="3" ry="3" style="stroke: #038048; stroke-width: 1.0;"/><text fill="#000000" font-family="sans-serif" font-size="11" lengthAdjust="spacingAndGlyphs" textLength="77" x="110" y="447.1064">getDescription()</text><ellipse cx="101" cy="457.9414" fill="#84BE84" rx="3" ry="3" style="stroke: #038048; stroke-width: 1.0;"/><text fill="#000000" font-family="sans-serif" font-size="11" lengthAdjust="spacingAndGlyphs" textLength="61" x="110" y="460.9424">getLicense()</text><ellipse cx="101" cy="471.7773" fill="#84BE84" rx="3" ry="3" style="stroke: #038048; stroke-width: 1.0;"/><text fill="#000000" font-family="sans-serif" font-size="11" lengthAdjust="spacingAndGlyphs" textLength="50" x="110" y="474.7783">getName()</text><ellipse cx="101" cy="485.6133" fill="#84BE84" rx="3" ry="3" style="stroke: #038048; stroke-width: 1.0;"/><text fill="#000000" font-family="sans-serif" font-size="11" lengthAdjust="spacingAndGlyphs" textLength="103" x="110" y="488.6143">getShortDescription()</text><ellipse cx="101" cy="499.4492" fill="#84BE84" rx="3" ry="3" style="stroke: #038048; stroke-width: 1.0;"/><text fill="#000000" font-family="sans-serif" font-size="11" lengthAdjust="spacingAndGlyphs" textLength="77" x="110" y="502.4502">setClassName()</text><ellipse cx="101" cy="513.2852" fill="#84BE84" rx="3" ry="3" style="stroke: #038048; stroke-width: 1.0;"/><text fill="#000000" font-family="sans-serif" font-size="11" lengthAdjust="spacingAndGlyphs" textLength="77" x="110" y="516.2861">setDescription()</text><ellipse cx="101" cy="527.1211" fill="#84BE84" rx="3" ry="3" style="stroke: #038048; stroke-width: 1.0;"/><text fill="#000000" font-family="sans-serif" font-size="11" lengthAdjust="spacingAndGlyphs" textLength="61" x="110" y="530.1221">setLicense()</text><ellipse cx="101" cy="540.957" fill="#84BE84" rx="3" ry="3" style="stroke: #038048; stroke-width: 1.0;"/><text fill="#000000" font-family="sans-serif" font-size="11" lengthAdjust="spacingAndGlyphs" textLength="103" x="110" y="543.958">setShortDescription()</text><!--link de.gematik.ti.cardreader.provider.api.entities.IProviderDescriptor to de.gematik.ti.cardreader.provider.api.entities.ProviderDescriptor--><path d="M161,241.438 C161,254.016 161,267.343 161,280.796 " fill="none" id="de.gematik.ti.cardreader.provider.api.entities.IProviderDescriptor-de.gematik.ti.cardreader.provider.api.entities.ProviderDescriptor" style="stroke: #A80036; stroke-width: 1.0; stroke-dasharray: 7.0,7.0;"/><polygon fill="none" points="154,241.085,161,221.084,168,241.084,154,241.085" style="stroke: #A80036; stroke-width: 1.0;"/><!--
@startuml



  namespace de.gematik.ti.cardreader.provider.api {
    namespace entities {
      interface de.gematik.ti.cardreader.provider.api.entities.IProviderDescriptor {
          {abstract} + getClassName()
          {abstract} + getDescription()
          {abstract} + getLicense()
          {abstract} + getName()
          {abstract} + getShortDescription()
      }
    }
  }


  namespace de.gematik.ti.cardreader.provider.api {
    namespace entities {
      class de.gematik.ti.cardreader.provider.api.entities.ProviderDescriptor {
          - className : String
          - description : String
          - license : String
          - name : String
          {static} - serialVersionUID : long
          - shortDescription : String
          + ProviderDescriptor()
          + getClassName()
          + getDescription()
          + getLicense()
          + getName()
          + getShortDescription()
          + setClassName()
          + setDescription()
          + setLicense()
          + setShortDescription()
      }
    }
  }


  de.gematik.ti.cardreader.provider.api.entities.ProviderDescriptor .up.|> de.gematik.ti.cardreader.provider.api.entities.IProviderDescriptor









@enduml

PlantUML version 1.2019.06(Fri May 24 19:10:25 CEST 2019)
(APACHE source distribution)
Java Runtime: OpenJDK Runtime Environment
JVM: OpenJDK 64-Bit Server VM
Java Version: 11.0.4+10-b304.69
Operating System: Windows 7
OS Version: 6.1
Default Encoding: Cp1252
Language: de
Country: DE
--></g></svg>