<?xml version="1.0" encoding="UTF-8" standalone="no"?><svg xmlns="http://www.w3.org/2000/svg" xmlns:xlink="http://www.w3.org/1999/xlink" contentScriptType="application/ecmascript" contentStyleType="text/css" height="536px" preserveAspectRatio="none" style="width:670px;height:536px;" version="1.1" viewBox="0 0 670 536" width="670px" zoomAndPan="magnify"><defs><filter height="300%" id="fkd1w9of2eow6" width="300%" x="-1" y="-1"><feGaussianBlur result="blurOut" stdDeviation="2.0"/><feColorMatrix in="blurOut" result="blurOut2" type="matrix" values="0 0 0 0 0 0 0 0 0 0 0 0 0 0 0 0 0 0 .4 0"/><feOffset dx="4.0" dy="4.0" in="blurOut2" result="blurOut3"/><feBlend in="SourceGraphic" in2="blurOut3" mode="normal"/></filter></defs><g><!--cluster de.gematik.ti.cardreader.provider.api--><polygon fill="#FFFFFF" filter="url(#fkd1w9of2eow6)" points="22,24,290,24,297,47.6094,648,47.6094,648,374,22,374,22,24" style="stroke: #000000; stroke-width: 1.5;"/><line style="stroke: #000000; stroke-width: 1.5;" x1="22" x2="297" y1="47.6094" y2="47.6094"/><text fill="#000000" font-family="sans-serif" font-size="14" font-weight="bold" lengthAdjust="spacingAndGlyphs" textLength="262" x="26" y="40.5332">de.gematik.ti.cardreader.provider.api</text><!--cluster de.gematik.ti.cardreader.provider.api.events--><polygon fill="#FFFFFF" filter="url(#fkd1w9of2eow6)" points="46,68,101,68,108,91.6094,509,91.6094,509,350,46,350,46,68" style="stroke: #000000; stroke-width: 1.5;"/><line style="stroke: #000000; stroke-width: 1.5;" x1="46" x2="108" y1="91.6094" y2="91.6094"/><text fill="#000000" font-family="sans-serif" font-size="14" font-weight="bold" lengthAdjust="spacingAndGlyphs" textLength="49" x="50" y="84.5332">events</text><!--cluster de.gematik.ti.cardreader.provider.api.listener--><polygon fill="#FFFFFF" filter="url(#fkd1w9of2eow6)" points="49,424,375,424,382,447.6094,385,447.6094,385,524,49,524,49,424" style="stroke: #000000; stroke-width: 1.5;"/><line style="stroke: #000000; stroke-width: 1.5;" x1="49" x2="382" y1="447.6094" y2="447.6094"/><text fill="#000000" font-family="sans-serif" font-size="14" font-weight="bold" lengthAdjust="spacingAndGlyphs" textLength="320" x="53" y="440.5332">de.gematik.ti.cardreader.provider.api.listener</text><!--class de.gematik.ti.cardreader.provider.api.ICardReader--><rect fill="#FEFECE" filter="url(#fkd1w9of2eow6)" height="48" id="de.gematik.ti.cardreader.provider.api.ICardReader" style="stroke: #A80036; stroke-width: 1.5;" width="103" x="528.5" y="272"/><ellipse cx="543.5" cy="288" fill="#ADD1B2" rx="11" ry="11" style="stroke: #A80036; stroke-width: 1.0;"/><path d="M545.5,284.5 Q545.7031,284 545.9375,283.75 Q546.1719,283.5 546.4375,283.5 Q546.9063,283.5 547.2031,283.7813 Q547.5,284.0625 547.5,284.7188 L547.5,286.2813 Q547.5,286.9375 547.2188,287.2188 Q546.9375,287.5 546.5,287.5 Q546.1094,287.5 545.8594,287.3281 Q545.6094,287.1563 545.5,286.7031 Q545.4531,286.3906 545.2813,286.2188 Q544.9688,285.8906 544.4063,285.7031 Q543.8438,285.5 543.2813,285.5 Q542.5781,285.5 541.9844,285.7813 Q541.4063,286.0625 540.9531,286.6875 Q540.5,287.3125 540.5,288.1719 L540.5,289.0938 Q540.5,290.125 541.3438,290.8125 Q542.1875,291.5 543.6875,291.5 Q544.5781,291.5 545.2031,291.2969 Q545.5625,291.1875 545.9688,290.8281 Q546.2344,290.625 546.375,290.5625 Q546.5156,290.5 546.6875,290.5 Q547.0156,290.5 547.25,290.7656 Q547.5,291.0156 547.5,291.375 Q547.5,291.7188 547.1563,292.125 Q546.6563,292.7188 545.8594,293.0469 Q544.8125,293.5 543.5313,293.5 Q542.0313,293.5 540.8281,292.9063 Q539.8594,292.4375 539.1719,291.4219 Q538.5,290.4063 538.5,289.2031 L538.5,288.1094 Q538.5,286.8594 539.0938,285.7656 Q539.7031,284.6719 540.75,284.0938 Q541.8125,283.5 543,283.5 Q543.7188,283.5 544.3438,283.75 Q544.9688,284 545.5,284.5 Z "/><text fill="#000000" font-family="sans-serif" font-size="12" lengthAdjust="spacingAndGlyphs" textLength="71" x="557.5" y="292.9102">ICardReader</text><line style="stroke: #A80036; stroke-width: 1.5;" x1="529.5" x2="630.5" y1="304" y2="304"/><line style="stroke: #A80036; stroke-width: 1.5;" x1="529.5" x2="630.5" y1="312" y2="312"/><!--class de.gematik.ti.cardreader.provider.api.events.AbstractCardReaderEvent--><rect fill="#FEFECE" filter="url(#fkd1w9of2eow6)" height="75.6719" id="de.gematik.ti.cardreader.provider.api.events.AbstractCardReaderEvent" style="stroke: #A80036; stroke-width: 1.5;" width="176" x="302" y="104"/><ellipse cx="317" cy="120" fill="#A9DCDF" rx="11" ry="11" style="stroke: #A80036; stroke-width: 1.0;"/><path d="M318.75,121.5 L315.4531,121.5 L315.0156,122.5 L315.0156,122.5 L315.4844,122.5 L316,123.125 L316,123.5 L316,123.875 L315.4844,124.5 L315.0156,124.5 L313.125,124.5 L312.5156,124.5 L312,123.875 L312,123.5 L312,123.125 L312.5156,122.5 L313.125,122.5 L315.4375,116.5 L314.5625,116.5 L313.5156,116.5 L313,115.875 L313,115.5 L313,115.125 L313.5156,114.5 L314.5625,114.5 L318.2344,114.5 L320.9219,122.5 L321.4844,122.5 L321.4844,122.5 L322,123.125 L322,123.5 L322,123.875 L321.4844,124.5 L320.9219,124.5 L319.0313,124.5 L318.5156,124.5 L318,123.875 L318,123.5 L318,123.125 L318.5156,122.5 L319.0313,122.5 L319.0313,122.5 L318.75,121.5 Z M318.2031,119.5 L317,115.9219 L315.9688,119.5 L318.2031,119.5 Z "/><text fill="#000000" font-family="sans-serif" font-size="12" font-style="italic" lengthAdjust="spacingAndGlyphs" textLength="144" x="331" y="124.9102">AbstractCardReaderEvent</text><line style="stroke: #A80036; stroke-width: 1.5;" x1="303" x2="477" y1="136" y2="136"/><line style="stroke: #A80036; stroke-width: 1.5;" x1="303" x2="477" y1="144" y2="144"/><ellipse cx="313" cy="156.418" fill="#84BE84" rx="3" ry="3" style="stroke: #038048; stroke-width: 1.0;"/><text fill="#000000" font-family="sans-serif" font-size="11" lengthAdjust="spacingAndGlyphs" textLength="81" x="322" y="159.4189">getCardReader()</text><polygon fill="#FFFF44" points="313,165.2539,317,169.2539,313,173.2539,309,169.2539" style="stroke: #B38D22; stroke-width: 1.0;"/><text fill="#000000" font-family="sans-serif" font-size="11" lengthAdjust="spacingAndGlyphs" textLength="135" x="322" y="173.2549">AbstractCardReaderEvent()</text><!--class de.gematik.ti.cardreader.provider.api.events.CardReaderConnectedEvent--><rect fill="#FEFECE" filter="url(#fkd1w9of2eow6)" height="75.6719" id="de.gematik.ti.cardreader.provider.api.events.CardReaderConnectedEvent" style="stroke: #A80036; stroke-width: 1.5;" width="190" x="62" y="258"/><ellipse cx="77" cy="274" fill="#ADD1B2" rx="11" ry="11" style="stroke: #A80036; stroke-width: 1.0;"/><path d="M79,270.5 Q79.2031,270 79.4375,269.75 Q79.6719,269.5 79.9375,269.5 Q80.4063,269.5 80.7031,269.7813 Q81,270.0625 81,270.7188 L81,272.2813 Q81,272.9375 80.7188,273.2188 Q80.4375,273.5 80,273.5 Q79.6094,273.5 79.3594,273.3281 Q79.1094,273.1563 79,272.7031 Q78.9531,272.3906 78.7813,272.2188 Q78.4688,271.8906 77.9063,271.7031 Q77.3438,271.5 76.7813,271.5 Q76.0781,271.5 75.4844,271.7813 Q74.9063,272.0625 74.4531,272.6875 Q74,273.3125 74,274.1719 L74,275.0938 Q74,276.125 74.8438,276.8125 Q75.6875,277.5 77.1875,277.5 Q78.0781,277.5 78.7031,277.2969 Q79.0625,277.1875 79.4688,276.8281 Q79.7344,276.625 79.875,276.5625 Q80.0156,276.5 80.1875,276.5 Q80.5156,276.5 80.75,276.7656 Q81,277.0156 81,277.375 Q81,277.7188 80.6563,278.125 Q80.1563,278.7188 79.3594,279.0469 Q78.3125,279.5 77.0313,279.5 Q75.5313,279.5 74.3281,278.9063 Q73.3594,278.4375 72.6719,277.4219 Q72,276.4063 72,275.2031 L72,274.1094 Q72,272.8594 72.5938,271.7656 Q73.2031,270.6719 74.25,270.0938 Q75.3125,269.5 76.5,269.5 Q77.2188,269.5 77.8438,269.75 Q78.4688,270 79,270.5 Z "/><text fill="#000000" font-family="sans-serif" font-size="12" lengthAdjust="spacingAndGlyphs" textLength="158" x="91" y="278.9102">CardReaderConnectedEvent</text><line style="stroke: #A80036; stroke-width: 1.5;" x1="63" x2="251" y1="290" y2="290"/><line style="stroke: #A80036; stroke-width: 1.5;" x1="63" x2="251" y1="298" y2="298"/><ellipse cx="73" cy="310.418" fill="#84BE84" rx="3" ry="3" style="stroke: #038048; stroke-width: 1.0;"/><text fill="#000000" font-family="sans-serif" font-size="11" lengthAdjust="spacingAndGlyphs" textLength="145" x="82" y="313.4189">CardReaderConnectedEvent()</text><ellipse cx="73" cy="324.2539" fill="#84BE84" rx="3" ry="3" style="stroke: #038048; stroke-width: 1.0;"/><text fill="#000000" font-family="sans-serif" font-size="11" lengthAdjust="spacingAndGlyphs" textLength="67" x="82" y="327.2549">getInitStatus()</text><!--class de.gematik.ti.cardreader.provider.api.events.CardReaderDisconnectedEvent--><rect fill="#FEFECE" filter="url(#fkd1w9of2eow6)" height="61.8359" id="de.gematik.ti.cardreader.provider.api.events.CardReaderDisconnectedEvent" style="stroke: #A80036; stroke-width: 1.5;" width="206" x="287" y="265"/><ellipse cx="302" cy="281" fill="#ADD1B2" rx="11" ry="11" style="stroke: #A80036; stroke-width: 1.0;"/><path d="M304,277.5 Q304.2031,277 304.4375,276.75 Q304.6719,276.5 304.9375,276.5 Q305.4063,276.5 305.7031,276.7813 Q306,277.0625 306,277.7188 L306,279.2813 Q306,279.9375 305.7188,280.2188 Q305.4375,280.5 305,280.5 Q304.6094,280.5 304.3594,280.3281 Q304.1094,280.1563 304,279.7031 Q303.9531,279.3906 303.7813,279.2188 Q303.4688,278.8906 302.9063,278.7031 Q302.3438,278.5 301.7813,278.5 Q301.0781,278.5 300.4844,278.7813 Q299.9063,279.0625 299.4531,279.6875 Q299,280.3125 299,281.1719 L299,282.0938 Q299,283.125 299.8438,283.8125 Q300.6875,284.5 302.1875,284.5 Q303.0781,284.5 303.7031,284.2969 Q304.0625,284.1875 304.4688,283.8281 Q304.7344,283.625 304.875,283.5625 Q305.0156,283.5 305.1875,283.5 Q305.5156,283.5 305.75,283.7656 Q306,284.0156 306,284.375 Q306,284.7188 305.6563,285.125 Q305.1563,285.7188 304.3594,286.0469 Q303.3125,286.5 302.0313,286.5 Q300.5313,286.5 299.3281,285.9063 Q298.3594,285.4375 297.6719,284.4219 Q297,283.4063 297,282.2031 L297,281.1094 Q297,279.8594 297.5938,278.7656 Q298.2031,277.6719 299.25,277.0938 Q300.3125,276.5 301.5,276.5 Q302.2188,276.5 302.8438,276.75 Q303.4688,277 304,277.5 Z "/><text fill="#000000" font-family="sans-serif" font-size="12" lengthAdjust="spacingAndGlyphs" textLength="174" x="316" y="285.9102">CardReaderDisconnectedEvent</text><line style="stroke: #A80036; stroke-width: 1.5;" x1="288" x2="492" y1="297" y2="297"/><line style="stroke: #A80036; stroke-width: 1.5;" x1="288" x2="492" y1="305" y2="305"/><ellipse cx="298" cy="317.418" fill="#84BE84" rx="3" ry="3" style="stroke: #038048; stroke-width: 1.0;"/><text fill="#000000" font-family="sans-serif" font-size="11" lengthAdjust="spacingAndGlyphs" textLength="159" x="307" y="320.4189">CardReaderDisconnectedEvent()</text><!--class de.gematik.ti.cardreader.provider.api.listener.InitializationStatus--><rect fill="#FEFECE" filter="url(#fkd1w9of2eow6)" height="48" id="de.gematik.ti.cardreader.provider.api.listener.InitializationStatus" style="stroke: #A80036; stroke-width: 1.5;" width="131" x="91.5" y="460"/><ellipse cx="106.5" cy="476" fill="#ADD1B2" rx="11" ry="11" style="stroke: #A80036; stroke-width: 1.0;"/><path d="M108.5,472.5 Q108.7031,472 108.9375,471.75 Q109.1719,471.5 109.4375,471.5 Q109.9063,471.5 110.2031,471.7813 Q110.5,472.0625 110.5,472.7188 L110.5,474.2813 Q110.5,474.9375 110.2188,475.2188 Q109.9375,475.5 109.5,475.5 Q109.1094,475.5 108.8594,475.3281 Q108.6094,475.1563 108.5,474.7031 Q108.4531,474.3906 108.2813,474.2188 Q107.9688,473.8906 107.4063,473.7031 Q106.8438,473.5 106.2813,473.5 Q105.5781,473.5 104.9844,473.7813 Q104.4063,474.0625 103.9531,474.6875 Q103.5,475.3125 103.5,476.1719 L103.5,477.0938 Q103.5,478.125 104.3438,478.8125 Q105.1875,479.5 106.6875,479.5 Q107.5781,479.5 108.2031,479.2969 Q108.5625,479.1875 108.9688,478.8281 Q109.2344,478.625 109.375,478.5625 Q109.5156,478.5 109.6875,478.5 Q110.0156,478.5 110.25,478.7656 Q110.5,479.0156 110.5,479.375 Q110.5,479.7188 110.1563,480.125 Q109.6563,480.7188 108.8594,481.0469 Q107.8125,481.5 106.5313,481.5 Q105.0313,481.5 103.8281,480.9063 Q102.8594,480.4375 102.1719,479.4219 Q101.5,478.4063 101.5,477.2031 L101.5,476.1094 Q101.5,474.8594 102.0938,473.7656 Q102.7031,472.6719 103.75,472.0938 Q104.8125,471.5 106,471.5 Q106.7188,471.5 107.3438,471.75 Q107.9688,472 108.5,472.5 Z "/><text fill="#000000" font-family="sans-serif" font-size="12" lengthAdjust="spacingAndGlyphs" textLength="99" x="120.5" y="480.9102">InitializationStatus</text><line style="stroke: #A80036; stroke-width: 1.5;" x1="92.5" x2="221.5" y1="492" y2="492"/><line style="stroke: #A80036; stroke-width: 1.5;" x1="92.5" x2="221.5" y1="500" y2="500"/><!--link de.gematik.ti.cardreader.provider.api.events.AbstractCardReaderEvent to de.gematik.ti.cardreader.provider.api.ICardReader--><path d="M446.859,188.487 C481.21,215.968 523.539,249.831 551.119,271.895 " fill="none" id="de.gematik.ti.cardreader.provider.api.events.AbstractCardReaderEvent-de.gematik.ti.cardreader.provider.api.ICardReader" style="stroke: #A80036; stroke-width: 1.0;"/><polygon fill="#FFFFFF" points="436.479,180.183,438.6653,187.0547,445.8493,187.6795,443.663,180.8078,436.479,180.183" style="stroke: #A80036; stroke-width: 1.0;"/><text fill="#000000" font-family="sans-serif" font-size="13" lengthAdjust="spacingAndGlyphs" textLength="66" x="491" y="224.4951">cardReader</text><!--link de.gematik.ti.cardreader.provider.api.events.AbstractCardReaderEvent to de.gematik.ti.cardreader.provider.api.events.CardReaderConnectedEvent--><path d="M316.238,191.12 C283.116,212.727 244.644,237.824 213.813,257.937 " fill="none" id="de.gematik.ti.cardreader.provider.api.events.AbstractCardReaderEvent-de.gematik.ti.cardreader.provider.api.events.CardReaderConnectedEvent" style="stroke: #A80036; stroke-width: 1.0;"/><polygon fill="none" points="312.426,185.248,333.002,180.183,320.076,196.974,312.426,185.248" style="stroke: #A80036; stroke-width: 1.0;"/><!--link de.gematik.ti.cardreader.provider.api.events.CardReaderConnectedEvent to de.gematik.ti.cardreader.provider.api.listener.InitializationStatus--><path d="M157,347.623 C157,384.259 157,432.056 157,459.9551 " fill="none" id="de.gematik.ti.cardreader.provider.api.events.CardReaderConnectedEvent-de.gematik.ti.cardreader.provider.api.listener.InitializationStatus" style="stroke: #A80036; stroke-width: 1.0;"/><polygon fill="#FFFFFF" points="157,334.193,153,340.193,157,346.193,161,340.193,157,334.193" style="stroke: #A80036; stroke-width: 1.0;"/><text fill="#000000" font-family="sans-serif" font-size="13" lengthAdjust="spacingAndGlyphs" textLength="55" x="158" y="404.4951">initStatus</text><!--link de.gematik.ti.cardreader.provider.api.events.AbstractCardReaderEvent to de.gematik.ti.cardreader.provider.api.events.CardReaderDisconnectedEvent--><path d="M390,200.285 C390,222.232 390,246.399 390,264.828 " fill="none" id="de.gematik.ti.cardreader.provider.api.events.AbstractCardReaderEvent-de.gematik.ti.cardreader.provider.api.events.CardReaderDisconnectedEvent" style="stroke: #A80036; stroke-width: 1.0;"/><polygon fill="none" points="383,200.183,390,180.183,397,200.183,383,200.183" style="stroke: #A80036; stroke-width: 1.0;"/><!--
@startuml



  namespace de.gematik.ti.cardreader.provider.api {
    namespace events {
      abstract class de.gematik.ti.cardreader.provider.api.events.AbstractCardReaderEvent {
          + getCardReader()
          # AbstractCardReaderEvent()
      }
    }
  }


  namespace de.gematik.ti.cardreader.provider.api {
    namespace events {
      class de.gematik.ti.cardreader.provider.api.events.CardReaderConnectedEvent {
          + CardReaderConnectedEvent()
          + getInitStatus()
      }
    }
  }


  namespace de.gematik.ti.cardreader.provider.api {
    namespace events {
      class de.gematik.ti.cardreader.provider.api.events.CardReaderDisconnectedEvent {
          + CardReaderDisconnectedEvent()
      }
    }
  }


  de.gematik.ti.cardreader.provider.api.events.AbstractCardReaderEvent o- - de.gematik.ti.cardreader.provider.api.ICardReader : cardReader
  de.gematik.ti.cardreader.provider.api.events.CardReaderConnectedEvent -up-|> de.gematik.ti.cardreader.provider.api.events.AbstractCardReaderEvent
  de.gematik.ti.cardreader.provider.api.events.CardReaderConnectedEvent o- - de.gematik.ti.cardreader.provider.api.listener.InitializationStatus : initStatus
  de.gematik.ti.cardreader.provider.api.events.CardReaderDisconnectedEvent -up-|> de.gematik.ti.cardreader.provider.api.events.AbstractCardReaderEvent









@enduml

PlantUML version 1.2019.06(Fri May 24 19:10:25 CEST 2019)
(APACHE source distribution)
Java Runtime: OpenJDK Runtime Environment
JVM: OpenJDK 64-Bit Server VM
Java Version: 11.0.4+10-b304.69
Operating System: Windows 7
OS Version: 6.1
Default Encoding: Cp1252
Language: de
Country: DE
--></g></svg>