<?xml version="1.0" encoding="UTF-8" standalone="no"?><svg xmlns="http://www.w3.org/2000/svg" xmlns:xlink="http://www.w3.org/1999/xlink" contentScriptType="application/ecmascript" contentStyleType="text/css" height="164px" preserveAspectRatio="none" style="width:322px;height:164px;" version="1.1" viewBox="0 0 322 164" width="322px" zoomAndPan="magnify"><defs><filter height="300%" id="f1dra04axnbcbl" width="300%" x="-1" y="-1"><feGaussianBlur result="blurOut" stdDeviation="2.0"/><feColorMatrix in="blurOut" result="blurOut2" type="matrix" values="0 0 0 0 0 0 0 0 0 0 0 0 0 0 0 0 0 0 .4 0"/><feOffset dx="4.0" dy="4.0" in="blurOut2" result="blurOut3"/><feBlend in="SourceGraphic" in2="blurOut3" mode="normal"/></filter></defs><g><!--cluster de.gematik.ti.cardreader.provider.spi--><polygon fill="#FFFFFF" filter="url(#f1dra04axnbcbl)" points="22,24,290,24,297,47.6094,300,47.6094,300,152,22,152,22,24" style="stroke: #000000; stroke-width: 1.5;"/><line style="stroke: #000000; stroke-width: 1.5;" x1="22" x2="297" y1="47.6094" y2="47.6094"/><text fill="#000000" font-family="sans-serif" font-size="14" font-weight="bold" lengthAdjust="spacingAndGlyphs" textLength="262" x="26" y="40.5332">de.gematik.ti.cardreader.provider.spi</text><!--class de.gematik.ti.cardreader.provider.spi.ICardReaderControllerProvider--><rect fill="#FEFECE" filter="url(#f1dra04axnbcbl)" height="75.6719" id="de.gematik.ti.cardreader.provider.spi.ICardReaderControllerProvider" style="stroke: #A80036; stroke-width: 1.5;" width="204" x="59" y="60"/><ellipse cx="74" cy="76" fill="#B4A7E5" rx="11" ry="11" style="stroke: #A80036; stroke-width: 1.0;"/><path d="M75,73 L75,79 L77,79 L77.4844,79 L78,79.625 L78,80 L78,80.375 L77.4844,81 L77,81 L71,81 L70.5156,81 L70,80.375 L70,80 L70,79.625 L70.5156,79 L71,79 L73,79 L73,73 L71,73 L70.5156,73 L70,72.375 L70,72 L70,71.625 L70.5156,71 L71,71 L77,71 L77.4844,71 L78,71.625 L78,72 L78,72.375 L77.4844,73 L77,73 L75,73 Z "/><text fill="#000000" font-family="sans-serif" font-size="12" font-style="italic" lengthAdjust="spacingAndGlyphs" textLength="172" x="88" y="80.9102">ICardReaderControllerProvider</text><line style="stroke: #A80036; stroke-width: 1.5;" x1="60" x2="262" y1="92" y2="92"/><line style="stroke: #A80036; stroke-width: 1.5;" x1="60" x2="262" y1="100" y2="100"/><ellipse cx="70" cy="112.418" fill="#84BE84" rx="3" ry="3" style="stroke: #038048; stroke-width: 1.0;"/><text fill="#000000" font-family="sans-serif" font-size="11" font-style="italic" lengthAdjust="spacingAndGlyphs" textLength="132" x="79" y="115.4189">getCardReaderController()</text><ellipse cx="70" cy="126.2539" fill="#84BE84" rx="3" ry="3" style="stroke: #038048; stroke-width: 1.0;"/><text fill="#000000" font-family="sans-serif" font-size="11" font-style="italic" lengthAdjust="spacingAndGlyphs" textLength="75" x="79" y="129.2549">getDescriptor()</text><!--
@startuml



  namespace de.gematik.ti.cardreader.provider.spi {
    interface de.gematik.ti.cardreader.provider.spi.ICardReaderControllerProvider {
        {abstract} + getCardReaderController()
        {abstract} + getDescriptor()
    }
  }











@enduml

PlantUML version 1.2019.06(Fri May 24 19:10:25 CEST 2019)
(APACHE source distribution)
Java Runtime: OpenJDK Runtime Environment
JVM: OpenJDK 64-Bit Server VM
Java Version: 11.0.4+10-b304.69
Operating System: Windows 7
OS Version: 6.1
Default Encoding: Cp1252
Language: de
Country: DE
--></g></svg>